<svg
   viewBox="0 0 21.5 21.398438"
   xmlns="http://www.w3.org/2000/svg">
  <path
     fill="currentColor"
     d="m 2.5703125,0 a 0.75,0.75 0 0 0 -0.75,0.74999995 V 18.080078 H 0.75 a 0.75,0.75 0 0 0 -0.75,0.75 0.75,0.75 0 0 0 0.75,0.75 h 1.0703125 v 1.06836 a 0.75,0.75 0 0 0 0.75,0.75 0.75,0.75 0 0 0 0.75,-0.75 v -1.06836 H 20.75 a 0.75,0.75 0 0 0 0.75,-0.75 0.75,0.75 0 0 0 -0.75,-0.75 H 3.3203125 V 0.74999995 A 0.75,0.75 0 0 0 2.5703125,0 Z M 19.830078,2.3496094 a 0.750075,0.750075 0 0 0 -0.289062,0.0625 L 16.810547,3.6015626 A 0.750075,0.750075 0 0 0 16.423828,3.984375 L 13.087891,11.503907 9.2089844,9.9531248 A 0.750075,0.750075 0 0 0 8.34375,10.181641 l -3.6289062,4.539062 a 0.750075,0.750075 0 0 0 0.5859374,1.21875 H 19.839844 a 0.750075,0.750075 0 0 0 0.75,-0.75 V 3.0996094 a 0.750075,0.750075 0 0 0 -0.759766,-0.75 z M 19.089844,4.2441406 V 14.439453 H 6.8613281 l 2.3066407,-2.886718 4.0332032,1.613281 a 0.750075,0.750075 0 0 0 0.964844,-0.392578 l 3.511718,-7.9140631 z" />
</svg>
