<?xml version="1.0" encoding="UTF-8" standalone="no"?>
<svg
   viewBox="0 0 23 42.999775"
   version="1.1"
   id="svg1"
   sodipodi:docname="balloon-orange.svg"
   inkscape:version="1.3.2 (091e20e, 2023-11-25, custom)"
   xmlns:inkscape="http://www.inkscape.org/namespaces/inkscape"
   xmlns:sodipodi="http://sodipodi.sourceforge.net/DTD/sodipodi-0.dtd"
   xmlns="http://www.w3.org/2000/svg"
   xmlns:svg="http://www.w3.org/2000/svg">
  <defs
     id="defs1" />
  <sodipodi:namedview
     id="namedview1"
     pagecolor="#ffffff"
     bordercolor="#000000"
     borderopacity="0.25"
     inkscape:showpageshadow="2"
     inkscape:pageopacity="0.0"
     inkscape:pagecheckerboard="0"
     inkscape:deskcolor="#d1d1d1"
     inkscape:zoom="18.069862"
     inkscape:cx="9.9336674"
     inkscape:cy="19.811994"
     inkscape:window-width="764"
     inkscape:window-height="1020"
     inkscape:window-x="996"
     inkscape:window-y="82"
     inkscape:window-maximized="0"
     inkscape:current-layer="svg1" />
  <path
     fill="currentColor"
     d="M 11.5,0 C 5.004409,0 0,6.197055 0,13.5 0,19.80213 3.728051,25.27692 8.923828,26.660156 L 6.251953,30.667969 A 1.50015,1.50015 0 0 0 7.5,33 h 1.335938 c 0.365023,0.456268 0.34941,0.680981 0.30664,0.958984 -0.05468,0.35545 -0.390625,0.958986 -0.890625,1.708985 -0.499998,0.749998 -1.16406,1.646468 -1.359375,2.916015 -0.195315,1.269549 0.325906,2.755594 1.546875,3.976563 a 1.5,1.5 0 0 0 2.121094,0 1.5,1.5 0 0 0 0,-2.121094 C 9.78152,39.660426 9.802737,39.396464 9.857422,39.041016 c 0.05468,-0.35545 0.390625,-0.958985 0.890625,-1.708985 0.499998,-0.749998 1.16406,-1.646468 1.359375,-2.916015 0.06951,-0.451835 0.0468,-0.931047 -0.06445,-1.416016 H 15.5 a 1.50015,1.50015 0 0 0 1.248047,-2.332031 L 14.076172,26.660156 C 19.271949,25.27692 23,19.80213 23,13.5 23,6.197055 17.995591,0 11.5,0 Z m 0,3 C 16.049987,3 20,7.548171 20,13.5 20,19.451829 16.049987,24 11.5,24 6.950013,24 3,19.451829 3,13.5 3,7.548171 6.950013,3 11.5,3 Z m 0,25.203125 L 12.697266,30 h -2.394532 z"
     id="path1"
     style="fill:#ee5c25;fill-opacity:1" />
</svg>
