<?xml version="1.0" encoding="UTF-8" standalone="no"?>
<svg
   viewBox="0 0 19.5 19.499907"
   version="1.1"
   id="svg1"
   sodipodi:docname="chatbot-smile-bubble-orange.svg"
   inkscape:version="1.3.2 (091e20e, 2023-11-25, custom)"
   xmlns:inkscape="http://www.inkscape.org/namespaces/inkscape"
   xmlns:sodipodi="http://sodipodi.sourceforge.net/DTD/sodipodi-0.dtd"
   xmlns="http://www.w3.org/2000/svg"
   xmlns:svg="http://www.w3.org/2000/svg">
  <defs
     id="defs1" />
  <sodipodi:namedview
     id="namedview1"
     pagecolor="#ffffff"
     bordercolor="#000000"
     borderopacity="0.25"
     inkscape:showpageshadow="2"
     inkscape:pageopacity="0.0"
     inkscape:pagecheckerboard="0"
     inkscape:deskcolor="#d1d1d1"
     inkscape:zoom="39.846345"
     inkscape:cx="9.7499533"
     inkscape:cy="9.7374051"
     inkscape:window-width="1450"
     inkscape:window-height="1020"
     inkscape:window-x="446"
     inkscape:window-y="339"
     inkscape:window-maximized="0"
     inkscape:current-layer="svg1" />
  <path
     fill="currentColor"
     d="M 2.75 0 C 1.2409121 0 0 1.2409121 0 2.75 L 0 13.480469 C 0 14.989556 1.2409121 16.230469 2.75 16.230469 L 4.0898438 16.230469 L 4.0898438 18.75 A 0.750075 0.750075 0 0 0 5.2109375 19.400391 L 10.769531 16.230469 L 16.75 16.230469 C 18.259087 16.230469 19.5 14.989556 19.5 13.480469 L 19.5 2.75 C 19.5 1.2409121 18.259087 0 16.75 0 L 2.75 0 z M 2.75 1.5 L 16.75 1.5 C 17.440907 1.5 18 2.0590923 18 2.75 L 18 13.480469 C 18 14.171376 17.440907 14.730469 16.75 14.730469 L 10.570312 14.730469 A 0.750075 0.750075 0 0 0 10.199219 14.828125 L 5.5898438 17.458984 L 5.5898438 15.480469 A 0.750075 0.750075 0 0 0 4.8398438 14.730469 L 2.75 14.730469 C 2.0590923 14.730469 1.5 14.171376 1.5 13.480469 L 1.5 2.75 C 1.5 2.0590923 2.0590923 1.5 2.75 1.5 z M 6.4707031 4.0898438 C 5.1596068 4.0898438 4.0800781 5.1693726 4.0800781 6.4804688 A 0.75 0.75 0 0 0 4.8300781 7.2304688 A 0.75 0.75 0 0 0 5.5800781 6.4804688 C 5.5800781 5.9715688 5.961803 5.5898437 6.4707031 5.5898438 C 6.9741087 5.5898438 7.359375 5.9860253 7.359375 6.4804688 A 0.75 0.75 0 0 0 8.109375 7.2304688 A 0.75 0.75 0 0 0 8.859375 6.4804688 C 8.859375 5.1749159 7.7872939 4.0898438 6.4707031 4.0898438 z M 13.019531 4.0898438 C 11.708436 4.0898438 10.630859 5.1693726 10.630859 6.4804688 A 0.75 0.75 0 0 0 11.380859 7.2304688 A 0.75 0.75 0 0 0 12.130859 6.4804688 C 12.130859 5.9715688 12.510632 5.5898437 13.019531 5.5898438 C 13.522937 5.5898438 13.910156 5.9860253 13.910156 6.4804688 A 0.75 0.75 0 0 0 14.660156 7.2304688 A 0.75 0.75 0 0 0 15.410156 6.4804688 C 15.410156 5.1749159 14.336122 4.0898437 13.019531 4.0898438 z M 13.84375 9.8203125 A 0.75 0.75 0 0 0 13.402344 9.9609375 L 12.875 10.341797 L 12.869141 10.34375 C 10.764822 11.645863 8.0731005 11.504629 6.1210938 9.9785156 A 0.75 0.75 0 0 0 5.5683594 9.8261719 A 0.75 0.75 0 0 0 5.0683594 10.107422 A 0.75 0.75 0 0 0 5.1972656 11.160156 C 7.6435911 13.072738 11.031174 13.251456 13.666016 11.617188 A 0.750075 0.750075 0 0 0 13.707031 11.589844 L 14.277344 11.179688 A 0.75 0.75 0 0 0 14.449219 10.132812 A 0.75 0.75 0 0 0 13.84375 9.8203125 z "
     id="path1"
     style="fill:#f05b23;fill-opacity:1" />
</svg>
