<svg
   viewBox="0 0 21.5 16.123047"
   xmlns="http://www.w3.org/2000/svg">
  <path
          fill="currentColor"
     d="M 0.75,0 A 0.75,0.75 0 0 0 0,0.75 0.75,0.75 0 0 0 0.75,1.5 h 20 A 0.75,0.75 0 0 0 21.5,0.75 0.75,0.75 0 0 0 20.75,0 Z m 0,7.3105469 a 0.75,0.75 0 0 0 -0.75,0.75 0.75,0.75 0 0 0 0.75,0.75 h 20 a 0.75,0.75 0 0 0 0.75,-0.75 0.75,0.75 0 0 0 -0.75,-0.75 z m 0,7.3125001 a 0.75,0.75 0 0 0 -0.75,0.75 0.75,0.75 0 0 0 0.75,0.75 h 20 a 0.75,0.75 0 0 0 0.75,-0.75 0.75,0.75 0 0 0 -0.75,-0.75 z" />
</svg>
