<svg width="111" height="122" viewBox="0 0 111 122" fill="none" xmlns="http://www.w3.org/2000/svg">
<path d="M8.83203 42.6152L38.1306 34.366V59.95" stroke="#00B3FC" stroke-width="0.676" stroke-linecap="round" stroke-linejoin="round"/>
<path d="M19.8774 8.47021L8.83203 42.615L38.9096 60.8272L62.3862 46.6084L38.1306 32.1272L19.8774 8.47021Z" stroke="#00B3FC" stroke-width="0.676" stroke-linecap="round" stroke-linejoin="round"/>
<path d="M71.1254 113.499C71.1363 109.306 60.014 105.877 46.2829 105.841C32.5518 105.805 21.4117 109.176 21.4007 113.369C21.3898 117.563 32.5121 120.992 46.2432 121.027C59.9742 121.063 71.1144 117.693 71.1254 113.499Z" fill="#7F09B7"/>
<path d="M71.2378 69.5662L21.5132 69.436L21.3982 113.371L71.1228 113.502L71.2378 69.5662Z" fill="#7F09B7"/>
<path d="M81.5152 68.7437C81.5308 62.8156 65.812 57.9687 46.4065 57.9179C27.0009 57.8671 11.257 62.6316 11.2415 68.5597C11.226 74.4878 26.9447 79.3346 46.3503 79.3854C65.7558 79.4362 81.4997 74.6718 81.5152 68.7437Z" fill="#7F09B7"/>
<path d="M69.6416 68.7126C69.6506 65.2708 59.2426 62.4533 46.3946 62.4197C33.5466 62.3861 23.124 65.1489 23.1149 68.5908C23.1059 72.0326 33.514 74.85 46.362 74.8837C59.2099 74.9173 69.6326 72.1544 69.6416 68.7126Z" fill="#1D1D1B"/>
<path d="M81.5168 68.7404C81.5004 74.669 65.7564 79.4331 46.3552 79.3839C26.954 79.3347 11.2346 74.4886 11.251 68.5518" stroke="black" stroke-width="0.676" stroke-miterlimit="10" stroke-linecap="round"/>
<path d="M106.616 35.4217L67.387 56.6237C66.905 56.8842 66.7254 57.4863 66.9859 57.9683L68.9704 61.6402C69.231 62.1222 69.833 62.3018 70.3151 62.0413L109.544 40.8393C110.026 40.5787 110.205 39.9767 109.945 39.4946L107.96 35.8228C107.7 35.3407 107.098 35.1611 106.616 35.4217Z" fill="white" stroke="black" stroke-width="0.676" stroke-miterlimit="10"/>
<path d="M67.5856 56.515L74.6551 52.6941L77.5832 58.1117L70.5136 61.9326C69.9221 62.2523 69.1776 62.0302 68.8579 61.4387L67.0917 58.1708C66.772 57.5793 66.9941 56.8347 67.5856 56.515Z" fill="#7F09B7" stroke="black" stroke-width="0.676" stroke-miterlimit="10"/>
<path d="M62.7144 20.0324C59.746 19.3846 57.4008 16.4408 56.8842 12.7098C56.8596 12.5622 56.6874 12.5622 56.671 12.7098C56.1544 16.4408 53.8092 19.3846 50.8408 20.0324C50.7178 20.057 50.7178 20.2784 50.8408 20.303C53.8092 20.9508 56.1544 23.8946 56.671 27.6256C56.6956 27.7732 56.8678 27.7732 56.8842 27.6256C57.4008 23.8946 59.746 20.9508 62.7144 20.303C62.8374 20.2784 62.8374 20.057 62.7144 20.0324Z" fill="#00B3FC"/>
<path d="M76.9004 27.6008C73.932 26.953 71.5868 24.0092 71.0702 20.2782C71.0456 20.1306 70.8734 20.1306 70.857 20.2782C70.3404 24.0092 67.9952 26.953 65.0268 27.6008C64.9038 27.6254 64.9038 27.8468 65.0268 27.8714C67.9952 28.5192 70.3404 31.463 70.857 35.194C70.8816 35.3416 71.0538 35.3416 71.0702 35.194C71.5868 31.463 73.932 28.5192 76.9004 27.8714C77.0234 27.8468 77.0234 27.6254 76.9004 27.6008Z" fill="#00B3FC"/>
<path d="M73.8908 6.96948C71.5374 6.45288 69.6842 4.12408 69.2742 1.17208C69.2578 1.04908 69.1184 1.04908 69.102 1.17208C68.692 4.12408 66.8388 6.45288 64.4854 6.96948C64.387 6.99408 64.387 7.15808 64.4854 7.18268C66.8388 7.69928 68.692 10.0281 69.102 12.9801C69.1184 13.1031 69.2578 13.1031 69.2742 12.9801C69.6842 10.0281 71.5374 7.69928 73.8908 7.18268C73.9892 7.15808 73.9892 6.99408 73.8908 6.96948Z" fill="#00B3FC"/>
<path d="M38.1308 43.5745C44.0815 43.5745 48.9056 38.7505 48.9056 32.7997C48.9056 26.8489 44.0815 22.0249 38.1308 22.0249C32.18 22.0249 27.356 26.8489 27.356 32.7997C27.356 38.7505 32.18 43.5745 38.1308 43.5745Z" fill="white" stroke="#F05A22" stroke-width="0.676" stroke-linecap="round" stroke-linejoin="round"/>
<path d="M38.1305 69.0765C42.6865 69.0765 46.3797 65.3832 46.3797 60.8273C46.3797 56.2714 42.6865 52.5781 38.1305 52.5781C33.5746 52.5781 29.8813 56.2714 29.8813 60.8273C29.8813 65.3832 33.5746 69.0765 38.1305 69.0765Z" fill="white" stroke="#F05A22" stroke-width="0.676" stroke-linecap="round" stroke-linejoin="round"/>
<path d="M8.83221 50.8644C13.3881 50.8644 17.0814 47.1711 17.0814 42.6152C17.0814 38.0593 13.3881 34.366 8.83221 34.366C4.2763 34.366 0.583008 38.0593 0.583008 42.6152C0.583008 47.1711 4.2763 50.8644 8.83221 50.8644Z" fill="white" stroke="#F05A22" stroke-width="0.676" stroke-linecap="round" stroke-linejoin="round"/>
<path d="M61.3613 54.0786C65.487 54.0786 68.8315 50.7341 68.8315 46.6084C68.8315 42.4827 65.487 39.1382 61.3613 39.1382C57.2356 39.1382 53.8911 42.4827 53.8911 46.6084C53.8911 50.7341 57.2356 54.0786 61.3613 54.0786Z" fill="white" stroke="#F05A22" stroke-width="0.676" stroke-linecap="round" stroke-linejoin="round"/>
<path d="M19.8774 15.9404C24.0031 15.9404 27.3476 12.5959 27.3476 8.4702C27.3476 4.34452 24.0031 1 19.8774 1C15.7517 1 12.4072 4.34452 12.4072 8.4702C12.4072 12.5959 15.7517 15.9404 19.8774 15.9404Z" fill="white" stroke="#F05A22" stroke-width="0.676" stroke-linecap="round" stroke-linejoin="round"/>
<path d="M57.6958 44.6896V49.9704C57.6958 50.4624 58.0976 50.8642 58.5896 50.8642H64.1328C64.6248 50.8642 65.0266 50.4624 65.0266 49.9704V42.7954C65.0266 42.3034 64.6248 41.9016 64.1328 41.9016H60.5494" stroke="#7F09B7" stroke-width="0.676" stroke-linecap="round" stroke-linejoin="round"/>
<path d="M60.5494 41.9016V44.6896H57.6958L60.5494 41.9016Z" stroke="#7F09B7" stroke-width="0.676" stroke-linecap="round" stroke-linejoin="round"/>
<path d="M11.1445 38.9907H6.5197C5.49621 38.9907 4.6665 39.8204 4.6665 40.8439V44.3863C4.6665 45.4098 5.49621 46.2395 6.5197 46.2395H11.1445C12.168 46.2395 12.9977 45.4098 12.9977 44.3863V40.8439C12.9977 39.8204 12.168 38.9907 11.1445 38.9907Z" stroke="#7F09B7" stroke-width="0.676" stroke-linecap="round" stroke-linejoin="round"/>
<path d="M10.5214 42.6152L7.7334 40.9998V44.2224L10.5214 42.6152Z" stroke="#7F09B7" stroke-width="0.676" stroke-linecap="round" stroke-linejoin="round"/>
<path d="M33.0142 34.0217L34.9248 32.9311C35.4578 32.6277 36.1384 32.7671 36.4992 33.2509L39.5086 37.2689" stroke="#7F09B7" stroke-width="0.676" stroke-linecap="round" stroke-linejoin="round"/>
<path d="M37.8848 34.8334L39.0246 34.1528C39.5412 33.8412 40.1972 33.956 40.5908 34.4152L41.952 36.047" stroke="#7F09B7" stroke-width="0.676" stroke-linecap="round" stroke-linejoin="round"/>
<path d="M33.0142 36.2765V29.3311C33.0142 28.7817 33.457 28.3389 34.0064 28.3389H40.9518C41.5012 28.3389 41.944 28.7817 41.944 29.3311V36.2765C41.944 36.8259 41.5012 37.2687 40.9518 37.2687H34.0064C33.457 37.2687 33.0142 36.8259 33.0142 36.2765Z" stroke="#7F09B7" stroke-width="0.676" stroke-linecap="round" stroke-linejoin="round"/>
<path d="M38.6965 31.988C39.3668 31.988 39.9101 31.4446 39.9101 30.7744C39.9101 30.1041 39.3668 29.5608 38.6965 29.5608C38.0263 29.5608 37.4829 30.1041 37.4829 30.7744C37.4829 31.4446 38.0263 31.988 38.6965 31.988Z" stroke="#7F09B7" stroke-width="0.676" stroke-linecap="round" stroke-linejoin="round"/>
<path d="M35.7441 63.615H34.7273C34.1943 63.615 33.7515 63.1804 33.7515 62.6392V57.424C33.7515 56.891 34.1861 56.4482 34.7273 56.4482H41.5333C42.0663 56.4482 42.5091 56.8828 42.5091 57.424V62.6392C42.5091 63.1722 42.0745 63.615 41.5333 63.615H38.5321L35.7441 65.2058V63.615Z" stroke="#7F09B7" stroke-width="0.676" stroke-linecap="round" stroke-linejoin="round"/>
<path d="M37.3271 59.2363C37.3271 58.8017 36.9745 58.4409 36.5317 58.4409C36.0889 58.4409 35.7363 58.7935 35.7363 59.2363" stroke="#7F09B7" stroke-width="0.676" stroke-linecap="round" stroke-linejoin="round"/>
<path d="M40.5166 59.2363C40.5166 58.8017 40.164 58.4409 39.7212 58.4409C39.2784 58.4409 38.9258 58.7935 38.9258 59.2363" stroke="#7F09B7" stroke-width="0.676" stroke-linecap="round" stroke-linejoin="round"/>
<path d="M36.1377 61.2288C37.2037 62.0652 38.6879 62.139 39.8359 61.4256L40.1147 61.2288" stroke="#7F09B7" stroke-width="0.676" stroke-linecap="round" stroke-linejoin="round"/>
</svg>
