<?xml version="1.0" encoding="UTF-8" standalone="no"?>
<svg
   viewBox="0 0 22 21"
   version="1.1"
   id="svg1"
   sodipodi:docname="network.svg"
   inkscape:version="1.3.2 (091e20e, 2023-11-25, custom)"
   xmlns:inkscape="http://www.inkscape.org/namespaces/inkscape"
   xmlns:sodipodi="http://sodipodi.sourceforge.net/DTD/sodipodi-0.dtd"
   xmlns="http://www.w3.org/2000/svg"
   xmlns:svg="http://www.w3.org/2000/svg">
  <defs
     id="defs1" />
  <sodipodi:namedview
     id="namedview1"
     pagecolor="#ffffff"
     bordercolor="#000000"
     borderopacity="0.25"
     inkscape:showpageshadow="2"
     inkscape:pageopacity="0.0"
     inkscape:pagecheckerboard="0"
     inkscape:deskcolor="#d1d1d1"
     inkscape:zoom="37"
     inkscape:cx="11"
     inkscape:cy="10.486486"
     inkscape:window-width="1450"
     inkscape:window-height="1250"
     inkscape:window-x="481"
     inkscape:window-y="448"
     inkscape:window-maximized="0"
     inkscape:current-layer="svg1" />
  <path
     fill="currentColor"
     d="M 7,0 C 5.8954311,0 5,0.8954311 5,2 5,3.1045689 5.8954311,4 7,4 7.053097,4 7.1061494,3.9982 7.1582031,3.99414 L 9.03125,7.7382812 C 8.8482537,7.8976767 8.684826,8.07834 8.5449219,8.277344 L 4.9980469,6.9472656 C 4.9701524,5.8670137 4.0869783,5 3,5 1.8954311,5 1,5.8954311 1,7 1,7.8395284 1.5168187,8.558888 2.25,8.855469 V 15.09375 C 0.955954,15.426684 0,16.601992 0,18 c 0,1.656898 1.3431517,3 3,3 1.5264152,0 2.78566,-1.140167 2.9746094,-2.615234 L 16.210938,17.105469 C 16.651121,18.215111 17.733605,19 19,19 c 1.656898,0 3,-1.343102 3,-3 0,-1.398008 -0.955935,-2.573316 -2.25,-2.90625 V 6.90625 C 21.044065,6.5733055 22,5.3979658 22,4 22,2.3431517 20.656898,1 19,1 17.776354,1 16.72457,1.7327335 16.257812,2.7832031 L 8.9511719,1.5644531 C 8.7521002,0.6696914 7.9547241,0 7,0 Z m 1.7050781,3.0449219 7.3066409,1.2167969 c 0.02682,0.3100564 0.100906,0.6069508 0.214843,0.8828124 L 12.873047,7.6582031 C 12.35963,7.2470529 11.708944,7 11,7 10.784454,7 10.573752,7.0232127 10.371094,7.0664062 L 8.5,3.3222656 C 8.5758966,3.2362011 8.6447238,3.1431818 8.7050781,3.0449219 Z m 8.4218749,3.296875 C 17.452882,6.6028084 17.833408,6.7990669 18.25,6.90625 v 6.1875 c -0.416592,0.10718 -0.797118,0.303446 -1.123047,0.564453 L 13.773438,11.144531 C 13.919101,10.791852 14,10.405297 14,10 14,9.594703 13.9191,9.208148 13.773438,8.855469 Z M 4.4726562,8.353516 8.0175781,9.683594 C 8.0066633,9.787651 8,9.893052 8,10 c 0,0.556351 0.1501681,1.076814 0.4140625,1.523438 l -3.890625,3.890624 C 4.2846438,15.272968 4.0253405,15.16459 3.75,15.09375 V 8.855469 C 4.0274959,8.743218 4.2733623,8.570364 4.4726562,8.353516 Z m 8.4003908,3.988281 3.353515,2.513672 c -0.09878,0.239176 -0.16715,0.494159 -0.201171,0.759765 L 5.7890625,16.894531 C 5.7314143,16.749212 5.6646058,16.609701 5.5859375,16.476562 L 9.476562,12.585938 C 9.923186,12.849832 10.443649,13 11,13 c 0.708944,0 1.35963,-0.247053 1.873047,-0.658203 z"
     id="path1"
     style="fill:#7f07c0;fill-opacity:1" />
</svg>
