<svg
   viewBox="0 0 43 43"
   xmlns="http://www.w3.org/2000/svg">
  <path
     fill="currentColor"
     d="M 21.5,0 C 16.700438,0 12.265019,1.5823161 8.6835938,4.25 6.9528634,3.7527039 5.1282039,3.4804687 3.2402344,3.4804688 a 1.5,1.5 0 0 0 -1.5,1.5 1.5,1.5 0 0 0 1.5,1.5 c 0.9161346,0 1.8135628,0.075932 2.6894531,0.2167968 C 2.2599719,10.5555 0,15.76676 0,21.5 0,33.356335 9.6436644,43 21.5,43 33.356335,43 43,33.356335 43,21.5 43,15.76676 40.740028,10.5555 37.070312,6.6972656 37.946205,6.5564007 38.843628,6.4804688 39.759766,6.4804688 a 1.5,1.5 0 0 0 1.5,-1.5 1.5,1.5 0 0 0 -1.5,-1.5 c -1.887975,0 -3.712628,0.2722351 -5.44336,0.7695312 C 30.734981,1.5823161 26.299562,0 21.5,0 Z m 0,3 c 3.446624,0 6.6683,0.94012 9.427734,2.5742188 C 26.694205,7.7006205 23.324333,11.301886 21.5,15.701172 19.675663,11.301886 16.305794,7.7006205 12.072266,5.5742188 14.8317,3.94012 18.053376,3 21.5,3 Z M 9.28125,7.6035156 C 15.55612,10.023983 20,16.103233 20,23.240234 a 1.5,1.5 0 0 0 1.5,1.5 1.5,1.5 0 0 0 1.5,-1.5 C 23,16.103233 27.443874,10.023983 33.71875,7.6035156 37.569879,10.991073 40,15.954681 40,21.5 40,31.73502 31.73502,40 21.5,40 11.26498,40 3,31.73502 3,21.5 3,15.954681 5.4301207,10.991073 9.28125,7.6035156 Z m 1.978516,5.2558594 c -3.3180008,0 -6.0390629,2.722973 -6.0390629,6.041016 0,3.317973 2.7210222,6.039062 6.0390629,6.039062 3.318073,0 6.039062,-2.721097 6.039062,-6.039062 0,-3.318035 -2.721029,-6.041016 -6.039062,-6.041016 z m 20.480468,0 c -3.318033,0 -6.039062,2.722981 -6.039062,6.041016 0,3.317965 2.720989,6.039062 6.039062,6.039062 3.318074,0 6.039063,-2.721097 6.039063,-6.039062 0,-3.318035 -2.721028,-6.041016 -6.039063,-6.041016 z m -20.480468,3 c 1.696755,0 3.039062,1.344259 3.039062,3.041016 0,1.696623 -1.342346,3.039062 -3.039062,3.039062 -1.6966508,0 -3.0390629,-1.342447 -3.0390629,-3.039062 0,-1.696749 1.3423722,-3.041016 3.0390629,-3.041016 z m 20.480468,0 c 1.696757,0 3.039063,1.344259 3.039063,3.041016 0,1.696623 -1.342346,3.039062 -3.039063,3.039062 -1.696716,0 -3.039062,-1.342439 -3.039062,-3.039062 0,-1.696757 1.342307,-3.041016 3.039062,-3.041016 z" />
</svg>
