<svg
   viewBox="0 0 17.02186 17.022047"
   xmlns="http://www.w3.org/2000/svg">
  <path
      fill="currentColor"
     d="M 0.77967135,1.6030461e-4 A 0.59380937,0.59380937 0 0 0 0.24451515,0.82047282 L 3.3870932,8.418129 0.04920265,16.191567 a 0.59380937,0.59380937 0 0 0 0.8144531,0.765625 L 16.695687,8.9532853 a 0.59380937,0.59380937 0 0 0 0.146484,-0.1074219 0.59375,0.59375 0 0 0 0.01758,-0.023437 0.59380937,0.59380937 0 0 0 0.09961,-0.1484375 0.59375,0.59375 0 0 0 0.02344,-0.052734 0.59380937,0.59380937 0 0 0 0.03906,-0.1992187 A 0.59375,0.59375 0 0 0 16.932021,8.1114893 0.59375,0.59375 0 0 0 16.828505,7.9845362 0.59375,0.59375 0 0 0 16.69374,7.8927392 0.59375,0.59375 0 0 0 16.65858,7.8751612 L 1.0589682,0.0626603 A 0.59380937,0.59380937 0 0 0 0.77967135,1.6030461e-4 Z M 1.9495932,1.8360978 13.914437,7.8282853 H 4.4281088 Z M 4.4222494,9.0157853 H 13.939827 L 1.7855307,15.158364 Z" />
</svg>
