<?xml version="1.0" encoding="UTF-8" standalone="no"?>
<svg
   viewBox="0 0 21.5 21.398438"
   version="1.1"
   id="svg1"
   sodipodi:docname="area-chart-purple.svg"
   inkscape:version="1.3.2 (091e20e, 2023-11-25, custom)"
   xmlns:inkscape="http://www.inkscape.org/namespaces/inkscape"
   xmlns:sodipodi="http://sodipodi.sourceforge.net/DTD/sodipodi-0.dtd"
   xmlns="http://www.w3.org/2000/svg"
   xmlns:svg="http://www.w3.org/2000/svg">
  <defs
     id="defs1" />
  <sodipodi:namedview
     id="namedview1"
     pagecolor="#ffffff"
     bordercolor="#000000"
     borderopacity="0.25"
     inkscape:showpageshadow="2"
     inkscape:pageopacity="0.0"
     inkscape:pagecheckerboard="0"
     inkscape:deskcolor="#d1d1d1"
     inkscape:zoom="36.311062"
     inkscape:cx="10.740528"
     inkscape:cy="10.699219"
     inkscape:window-width="1920"
     inkscape:window-height="991"
     inkscape:window-x="2391"
     inkscape:window-y="-9"
     inkscape:window-maximized="1"
     inkscape:current-layer="svg1" />
  <path
     fill="currentColor"
     d="m 2.5703125,0 a 0.75,0.75 0 0 0 -0.75,0.74999995 V 18.080078 H 0.75 a 0.75,0.75 0 0 0 -0.75,0.75 0.75,0.75 0 0 0 0.75,0.75 h 1.0703125 v 1.06836 a 0.75,0.75 0 0 0 0.75,0.75 0.75,0.75 0 0 0 0.75,-0.75 v -1.06836 H 20.75 a 0.75,0.75 0 0 0 0.75,-0.75 0.75,0.75 0 0 0 -0.75,-0.75 H 3.3203125 V 0.74999995 A 0.75,0.75 0 0 0 2.5703125,0 Z M 19.830078,2.3496094 a 0.750075,0.750075 0 0 0 -0.289062,0.0625 L 16.810547,3.6015626 A 0.750075,0.750075 0 0 0 16.423828,3.984375 L 13.087891,11.503907 9.2089844,9.9531248 A 0.750075,0.750075 0 0 0 8.34375,10.181641 l -3.6289062,4.539062 a 0.750075,0.750075 0 0 0 0.5859374,1.21875 H 19.839844 a 0.750075,0.750075 0 0 0 0.75,-0.75 V 3.0996094 a 0.750075,0.750075 0 0 0 -0.759766,-0.75 z M 19.089844,4.2441406 V 14.439453 H 6.8613281 l 2.3066407,-2.886718 4.0332032,1.613281 a 0.750075,0.750075 0 0 0 0.964844,-0.392578 l 3.511718,-7.9140631 z"
     id="path1"
     style="fill:#8107c1;fill-opacity:1" />
</svg>
