<svg
   viewBox="0 0 15.64333 15.784069"
   xmlns="http://www.w3.org/2000/svg">
  <path
     fill="currentColor"
     d="M 14.893441,2.2550191e-6 A 0.75,0.75 0 0 0 14.362191,0.21875226 L 7.7508633,6.8300804 1.2821133,0.36133038 a 0.75,0.75 0 0 0 -1.06249997,0 0.75,0.75 0 0 0 0,1.06054692 L 6.6883633,7.8906273 0.21961333,14.36133 a 0.75,0.75 0 0 0 0,1.060547 0.75,0.75 0 0 0 1.06249997,0 l 6.46875,-6.4687497 6.6113277,6.6113277 a 0.75,0.75 0 0 0 1.060547,0 0.75,0.75 0 0 0 0,-1.060547 L 8.8114102,7.8925804 15.422738,1.2812523 a 0.75,0.75 0 0 0 0,-1.06250004 A 0.75,0.75 0 0 0 14.893441,2.2550191e-6 Z" />
</svg>
