<?xml version="1.0" encoding="utf-8"?>
<svg xmlns="http://www.w3.org/2000/svg">
<symbol id="area-chart" viewBox="0 0 21.5 21.398438">
  <path fill="currentColor" d="m 2.5703125,0 a 0.75,0.75 0 0 0 -0.75,0.74999995 V 18.080078 H 0.75 a 0.75,0.75 0 0 0 -0.75,0.75 0.75,0.75 0 0 0 0.75,0.75 h 1.0703125 v 1.06836 a 0.75,0.75 0 0 0 0.75,0.75 0.75,0.75 0 0 0 0.75,-0.75 v -1.06836 H 20.75 a 0.75,0.75 0 0 0 0.75,-0.75 0.75,0.75 0 0 0 -0.75,-0.75 H 3.3203125 V 0.74999995 A 0.75,0.75 0 0 0 2.5703125,0 Z M 19.830078,2.3496094 a 0.750075,0.750075 0 0 0 -0.289062,0.0625 L 16.810547,3.6015626 A 0.750075,0.750075 0 0 0 16.423828,3.984375 L 13.087891,11.503907 9.2089844,9.9531248 A 0.750075,0.750075 0 0 0 8.34375,10.181641 l -3.6289062,4.539062 a 0.750075,0.750075 0 0 0 0.5859374,1.21875 H 19.839844 a 0.750075,0.750075 0 0 0 0.75,-0.75 V 3.0996094 a 0.750075,0.750075 0 0 0 -0.759766,-0.75 z M 19.089844,4.2441406 V 14.439453 H 6.8613281 l 2.3066407,-2.886718 4.0332032,1.613281 a 0.750075,0.750075 0 0 0 0.964844,-0.392578 l 3.511718,-7.9140631 z"/>

</symbol>
<symbol id="balloon" viewBox="0 0 23 42.999775">
  <path fill="currentColor" d="M 11.5,0 C 5.004409,0 0,6.197055 0,13.5 0,19.80213 3.728051,25.27692 8.923828,26.660156 L 6.251953,30.667969 A 1.50015,1.50015 0 0 0 7.5,33 h 1.335938 c 0.365023,0.456268 0.34941,0.680981 0.30664,0.958984 -0.05468,0.35545 -0.390625,0.958986 -0.890625,1.708985 -0.499998,0.749998 -1.16406,1.646468 -1.359375,2.916015 -0.195315,1.269549 0.325906,2.755594 1.546875,3.976563 a 1.5,1.5 0 0 0 2.121094,0 1.5,1.5 0 0 0 0,-2.121094 C 9.78152,39.660426 9.802737,39.396464 9.857422,39.041016 c 0.05468,-0.35545 0.390625,-0.958985 0.890625,-1.708985 0.499998,-0.749998 1.16406,-1.646468 1.359375,-2.916015 0.06951,-0.451835 0.0468,-0.931047 -0.06445,-1.416016 H 15.5 a 1.50015,1.50015 0 0 0 1.248047,-2.332031 L 14.076172,26.660156 C 19.271949,25.27692 23,19.80213 23,13.5 23,6.197055 17.995591,0 11.5,0 Z m 0,3 C 16.049987,3 20,7.548171 20,13.5 20,19.451829 16.049987,24 11.5,24 6.950013,24 3,19.451829 3,13.5 3,7.548171 6.950013,3 11.5,3 Z m 0,25.203125 L 12.697266,30 h -2.394532 z"/>

</symbol>
<symbol id="chatbot-smile-bubble" viewBox="0 0 19.5 19.499907">
  <path fill="currentColor" d="M 2.75 0 C 1.2409121 0 0 1.2409121 0 2.75 L 0 13.480469 C 0 14.989556 1.2409121 16.230469 2.75 16.230469 L 4.0898438 16.230469 L 4.0898438 18.75 A 0.750075 0.750075 0 0 0 5.2109375 19.400391 L 10.769531 16.230469 L 16.75 16.230469 C 18.259087 16.230469 19.5 14.989556 19.5 13.480469 L 19.5 2.75 C 19.5 1.2409121 18.259087 0 16.75 0 L 2.75 0 z M 2.75 1.5 L 16.75 1.5 C 17.440907 1.5 18 2.0590923 18 2.75 L 18 13.480469 C 18 14.171376 17.440907 14.730469 16.75 14.730469 L 10.570312 14.730469 A 0.750075 0.750075 0 0 0 10.199219 14.828125 L 5.5898438 17.458984 L 5.5898438 15.480469 A 0.750075 0.750075 0 0 0 4.8398438 14.730469 L 2.75 14.730469 C 2.0590923 14.730469 1.5 14.171376 1.5 13.480469 L 1.5 2.75 C 1.5 2.0590923 2.0590923 1.5 2.75 1.5 z M 6.4707031 4.0898438 C 5.1596068 4.0898438 4.0800781 5.1693726 4.0800781 6.4804688 A 0.75 0.75 0 0 0 4.8300781 7.2304688 A 0.75 0.75 0 0 0 5.5800781 6.4804688 C 5.5800781 5.9715688 5.961803 5.5898437 6.4707031 5.5898438 C 6.9741087 5.5898438 7.359375 5.9860253 7.359375 6.4804688 A 0.75 0.75 0 0 0 8.109375 7.2304688 A 0.75 0.75 0 0 0 8.859375 6.4804688 C 8.859375 5.1749159 7.7872939 4.0898438 6.4707031 4.0898438 z M 13.019531 4.0898438 C 11.708436 4.0898438 10.630859 5.1693726 10.630859 6.4804688 A 0.75 0.75 0 0 0 11.380859 7.2304688 A 0.75 0.75 0 0 0 12.130859 6.4804688 C 12.130859 5.9715688 12.510632 5.5898437 13.019531 5.5898438 C 13.522937 5.5898438 13.910156 5.9860253 13.910156 6.4804688 A 0.75 0.75 0 0 0 14.660156 7.2304688 A 0.75 0.75 0 0 0 15.410156 6.4804688 C 15.410156 5.1749159 14.336122 4.0898437 13.019531 4.0898438 z M 13.84375 9.8203125 A 0.75 0.75 0 0 0 13.402344 9.9609375 L 12.875 10.341797 L 12.869141 10.34375 C 10.764822 11.645863 8.0731005 11.504629 6.1210938 9.9785156 A 0.75 0.75 0 0 0 5.5683594 9.8261719 A 0.75 0.75 0 0 0 5.0683594 10.107422 A 0.75 0.75 0 0 0 5.1972656 11.160156 C 7.6435911 13.072738 11.031174 13.251456 13.666016 11.617188 A 0.750075 0.750075 0 0 0 13.707031 11.589844 L 14.277344 11.179688 A 0.75 0.75 0 0 0 14.449219 10.132812 A 0.75 0.75 0 0 0 13.84375 9.8203125 z "/>

</symbol>
<symbol id="cross" viewBox="0 0 15.64333 15.784069">
  <path fill="currentColor" d="M 14.893441,2.2550191e-6 A 0.75,0.75 0 0 0 14.362191,0.21875226 L 7.7508633,6.8300804 1.2821133,0.36133038 a 0.75,0.75 0 0 0 -1.06249997,0 0.75,0.75 0 0 0 0,1.06054692 L 6.6883633,7.8906273 0.21961333,14.36133 a 0.75,0.75 0 0 0 0,1.060547 0.75,0.75 0 0 0 1.06249997,0 l 6.46875,-6.4687497 6.6113277,6.6113277 a 0.75,0.75 0 0 0 1.060547,0 0.75,0.75 0 0 0 0,-1.060547 L 8.8114102,7.8925804 15.422738,1.2812523 a 0.75,0.75 0 0 0 0,-1.06250004 A 0.75,0.75 0 0 0 14.893441,2.2550191e-6 Z"/>

</symbol>
<symbol id="hamburger-menu" viewBox="0 0 21.5 16.123047">
  <path fill="currentColor" d="M 0.75,0 A 0.75,0.75 0 0 0 0,0.75 0.75,0.75 0 0 0 0.75,1.5 h 20 A 0.75,0.75 0 0 0 21.5,0.75 0.75,0.75 0 0 0 20.75,0 Z m 0,7.3105469 a 0.75,0.75 0 0 0 -0.75,0.75 0.75,0.75 0 0 0 0.75,0.75 h 20 a 0.75,0.75 0 0 0 0.75,-0.75 0.75,0.75 0 0 0 -0.75,-0.75 z m 0,7.3125001 a 0.75,0.75 0 0 0 -0.75,0.75 0.75,0.75 0 0 0 0.75,0.75 h 20 a 0.75,0.75 0 0 0 0.75,-0.75 0.75,0.75 0 0 0 -0.75,-0.75 z"/>

</symbol>
<symbol id="owl" viewBox="0 0 43 43">
  <path fill="currentColor" d="M 21.5,0 C 16.700438,0 12.265019,1.5823161 8.6835938,4.25 6.9528634,3.7527039 5.1282039,3.4804687 3.2402344,3.4804688 a 1.5,1.5 0 0 0 -1.5,1.5 1.5,1.5 0 0 0 1.5,1.5 c 0.9161346,0 1.8135628,0.075932 2.6894531,0.2167968 C 2.2599719,10.5555 0,15.76676 0,21.5 0,33.356335 9.6436644,43 21.5,43 33.356335,43 43,33.356335 43,21.5 43,15.76676 40.740028,10.5555 37.070312,6.6972656 37.946205,6.5564007 38.843628,6.4804688 39.759766,6.4804688 a 1.5,1.5 0 0 0 1.5,-1.5 1.5,1.5 0 0 0 -1.5,-1.5 c -1.887975,0 -3.712628,0.2722351 -5.44336,0.7695312 C 30.734981,1.5823161 26.299562,0 21.5,0 Z m 0,3 c 3.446624,0 6.6683,0.94012 9.427734,2.5742188 C 26.694205,7.7006205 23.324333,11.301886 21.5,15.701172 19.675663,11.301886 16.305794,7.7006205 12.072266,5.5742188 14.8317,3.94012 18.053376,3 21.5,3 Z M 9.28125,7.6035156 C 15.55612,10.023983 20,16.103233 20,23.240234 a 1.5,1.5 0 0 0 1.5,1.5 1.5,1.5 0 0 0 1.5,-1.5 C 23,16.103233 27.443874,10.023983 33.71875,7.6035156 37.569879,10.991073 40,15.954681 40,21.5 40,31.73502 31.73502,40 21.5,40 11.26498,40 3,31.73502 3,21.5 3,15.954681 5.4301207,10.991073 9.28125,7.6035156 Z m 1.978516,5.2558594 c -3.3180008,0 -6.0390629,2.722973 -6.0390629,6.041016 0,3.317973 2.7210222,6.039062 6.0390629,6.039062 3.318073,0 6.039062,-2.721097 6.039062,-6.039062 0,-3.318035 -2.721029,-6.041016 -6.039062,-6.041016 z m 20.480468,0 c -3.318033,0 -6.039062,2.722981 -6.039062,6.041016 0,3.317965 2.720989,6.039062 6.039062,6.039062 3.318074,0 6.039063,-2.721097 6.039063,-6.039062 0,-3.318035 -2.721028,-6.041016 -6.039063,-6.041016 z m -20.480468,3 c 1.696755,0 3.039062,1.344259 3.039062,3.041016 0,1.696623 -1.342346,3.039062 -3.039062,3.039062 -1.6966508,0 -3.0390629,-1.342447 -3.0390629,-3.039062 0,-1.696749 1.3423722,-3.041016 3.0390629,-3.041016 z m 20.480468,0 c 1.696757,0 3.039063,1.344259 3.039063,3.041016 0,1.696623 -1.342346,3.039062 -3.039063,3.039062 -1.696716,0 -3.039062,-1.342439 -3.039062,-3.039062 0,-1.696757 1.342307,-3.041016 3.039062,-3.041016 z"/>

</symbol>
<symbol id="send-message" viewBox="0 0 17.02186 17.022047">
  <path fill="currentColor" d="M 0.77967135,1.6030461e-4 A 0.59380937,0.59380937 0 0 0 0.24451515,0.82047282 L 3.3870932,8.418129 0.04920265,16.191567 a 0.59380937,0.59380937 0 0 0 0.8144531,0.765625 L 16.695687,8.9532853 a 0.59380937,0.59380937 0 0 0 0.146484,-0.1074219 0.59375,0.59375 0 0 0 0.01758,-0.023437 0.59380937,0.59380937 0 0 0 0.09961,-0.1484375 0.59375,0.59375 0 0 0 0.02344,-0.052734 0.59380937,0.59380937 0 0 0 0.03906,-0.1992187 A 0.59375,0.59375 0 0 0 16.932021,8.1114893 0.59375,0.59375 0 0 0 16.828505,7.9845362 0.59375,0.59375 0 0 0 16.69374,7.8927392 0.59375,0.59375 0 0 0 16.65858,7.8751612 L 1.0589682,0.0626603 A 0.59380937,0.59380937 0 0 0 0.77967135,1.6030461e-4 Z M 1.9495932,1.8360978 13.914437,7.8282853 H 4.4281088 Z M 4.4222494,9.0157853 H 13.939827 L 1.7855307,15.158364 Z"/>

</symbol>
<symbol id="share" viewBox="0 0 15.75 15.424542">
  <path fill="currentColor" d="M 7.7910156,0.00462039 A 0.750075,0.750075 0 0 0 7.34375,0.21946419 L 5.4042969,2.1589173 a 0.75,0.75 0 0 0 0,1.0605469 0.75,0.75 0 0 0 1.0605469,0 L 7.125,2.5593079 v 6.28125 a 0.75,0.75 0 0 0 0.75,0.7499995 0.75,0.75 0 0 0 0.75,-0.7499995 V 2.561261 l 0.6582031,0.6582032 a 0.75,0.75 0 0 0 1.0624999,0 0.75,0.75 0 0 0 0,-1.0605469 L 8.4042969,0.21946419 A 0.750075,0.750075 0 0 0 7.7910156,0.00462039 Z M 2.3339844,6.1511048 C 1.0540645,6.1511048 0,7.2032108 0,8.483136 v 4.607421 c 0,1.279957 1.0540645,2.333985 2.3339844,2.333985 H 13.416016 c 1.279903,0 2.333984,-1.054028 2.333984,-2.333985 V 8.483136 c 0,-1.2799252 -1.054081,-2.3320312 -2.333984,-2.3320312 h -2.232422 a 0.75,0.75 0 0 0 -0.75,0.75 0.75,0.75 0 0 0 0.75,0.75 h 2.232422 c 0.461692,0 0.833984,0.37028 0.833984,0.8320312 v 4.607421 c 0,0.461839 -0.372292,0.833985 -0.833984,0.833985 H 2.3339844 C 1.8722477,13.924542 1.5,13.552396 1.5,13.090557 V 8.483136 C 1.5,8.0213848 1.8722477,7.6511048 2.3339844,7.6511048 h 2.5019531 a 0.75,0.75 0 0 0 0.75,-0.75 0.75,0.75 0 0 0 -0.75,-0.75 z"/>

</symbol>
<symbol id="trophy-cup" viewBox="0 0 19.679693 21.5">
  <path fill="currentColor" d="M 4.4902369,0 V 0.003906 C 4.0188676,0.00995339 3.6386744,0.38651057 3.6386744,0.859375 V 1.8203125 H 0.75000258 a 0.750075,0.750075 0 0 0 -0.7499999963015,0.75 c 0,0 -0.0053640037,2.1034809 0.4726562463015,4.2519531 C 0.7116688,7.8965018 1.064788,8.9937762 1.6621119,9.888672 c 0.5646107,0.845885 1.4356825,1.530866 2.5351563,1.603516 0.8792548,1.924814 2.714118,3.32692 4.8925781,3.591796 v 2.185547 H 5.2988307 c -0.9078849,0 -1.6601563,0.752236 -1.6601563,1.660157 v 0.910156 c 0,0.90792 0.7522714,1.660156 1.6601563,1.660156 h 9.0898433 c 0.907891,0 1.660156,-0.752266 1.660156,-1.660156 v -0.910156 c 0,-0.907891 -0.752265,-1.660157 -1.660156,-1.660157 h -3.798828 v -2.185547 c 2.177672,-0.264801 4.011584,-1.665862 4.890625,-3.589843 1.100416,-0.07195 1.972158,-0.759072 2.537109,-1.605469 0.597325,-0.8948959 0.950444,-1.9921701 1.189454,-3.0664064 0.47802,-2.1484723 0.472656,-4.2519531 0.472656,-4.2519531 a 0.750075,0.750075 0 0 0 -0.75,-0.75 H 16.039065 V 0.859375 C 16.039065,0.38270929 15.656355,0 15.17969,0 H 4.5000025 Z m 0.6484375,1.5 h 9.4003906 v 7.4296875 c 0,2.6046785 -2.09454,4.7011715 -4.6992187,4.7011715 -2.6046792,0 -4.7011719,-2.096493 -4.7011719,-4.7011715 V 2.5820312 a 0.75,0.75 0 0 0 0.00195,-0.011719 0.75,0.75 0 0 0 -0.00195,-0.042969 z M 1.5839869,3.3203125 h 2.0546875 v 5.609375 c 0,0.310716 0.023867,0.6153901 0.068359,0.9140625 C 3.4135089,9.6930504 3.1622373,9.4323451 2.9101588,9.0546875 2.4837353,8.4158305 2.1534913,7.4688141 1.9375025,6.4980469 1.5880162,4.927272 1.5980113,3.8739612 1.5839869,3.3203125 Z m 14.4550781,0 h 2.05664 c -0.01402,0.5536486 -0.004,1.6069595 -0.353515,3.1777344 -0.215989,0.9707672 -0.546232,1.9177836 -0.972656,2.5566406 -0.252745,0.3786558 -0.504305,0.6405049 -0.798829,0.7910155 0.04465,-0.299281 0.06836,-0.6046357 0.06836,-0.9160155 z M 5.2988307,18.769531 h 4.5410156 4.5488277 c 0.09731,0 0.160156,0.06285 0.160156,0.160157 v 0.910156 C 14.54883,19.937154 14.48598,20 14.388674,20 H 5.2988307 C 5.2015777,20 5.1386744,19.93712 5.1386744,19.839844 v -0.910156 c 0,-0.09728 0.062903,-0.160157 0.1601563,-0.160157 z"/>
	<symbol id="accordion-arrow-down" viewBox="0 0 22 10">
		<path d="M21.3791 0.5854C21.609 0.931539 21.516 1.39931 21.1714 1.63019L11.4214 9.12337C11.1694 9.29221 10.841 9.29221 10.589 9.12337L0.839024 1.63019C0.494436 1.39931 0.401422 0.931539 0.631274 0.5854C0.861124 0.239261 1.3268 0.145829 1.67139 0.376714L11.0052 7.59103L20.339 0.376714C20.6836 0.145829 21.1493 0.239261 21.3791 0.5854Z" fill="currentColor"/>
	</symbol>
	<symbol id="accordion-arrow-up" viewBox="0 0 22 10">
		<path d="M0.620859 9.4146C0.391008 9.06846 0.484022 8.60069 0.82861 8.3698L10.5786 0.876633C10.8306 0.707788 11.159 0.707788 11.411 0.876633L21.161 8.36981C21.5056 8.60069 21.5986 9.06846 21.3687 9.4146C21.1389 9.76074 20.6732 9.85417 20.3286 9.62329L10.9948 2.40897L1.66097 9.62328C1.31639 9.85417 0.85071 9.76074 0.620859 9.4146Z" fill="currentColor"/>
	</symbol>
	<symbol id="animation-arrow-bar" viewBox="0 0 19.5 19.5">
		<path fill="currentColor" d="M18.75,1.5h-18C0.336,1.5,0,1.164,0,0.75S0.336,0,0.75,0h18c0.414,0,0.75,0.336,0.75,0.75
	S19.164,1.5,18.75,1.5z"/>

	</symbol>
	<symbol id="animation-arrow" viewBox="0 0 19.5 19.5">
		<path fill="currentColor" d="M15.229,8.42L10.28,3.47c-0.068-0.068-0.15-0.124-0.242-0.161C9.948,3.271,9.85,3.25,9.75,3.25
	S9.552,3.271,9.461,3.309C9.371,3.346,9.288,3.401,9.22,3.47L4.27,8.42c-0.293,0.293-0.293,0.768,0,1.061s0.768,0.293,1.061,0
	L9,5.811V17.97c0,0.414,0.336,0.75,0.75,0.75s0.75-0.336,0.75-0.75V5.811l3.669,3.67c0.146,0.146,0.338,0.22,0.53,0.22
	s0.384-0.073,0.53-0.22C15.522,9.188,15.522,8.713,15.229,8.42z"/>

	</symbol>
	<symbol id="app-home" viewBox="0 0 24 24">
		<path fill="currentColor" d="M23,2H1C0.448,2,0,1.552,0,1s0.448-1,1-1h22c0.553,0,1,0.448,1,1S23.553,2,23,2z"/>
		<path fill="currentColor" d="M22,13H1c-0.552,0-1-0.448-1-1s0.448-1,1-1h21c0.553,0,1,0.448,1,1S22.553,13,22,13z"/>
		<path fill="currentColor" d="M11,19H1c-0.552,0-1-0.447-1-1s0.448-1,1-1h10c0.552,0,1,0.447,1,1S11.552,19,11,19z"/>
		<path fill="currentColor" d="M18,8H1C0.448,8,0,7.552,0,7s0.448-1,1-1h17c0.553,0,1,0.448,1,1S18.553,8,18,8z"/>

	</symbol>
	<symbol id="app-news" viewBox="0 0 24 24">
		<path fill="currentColor" d="M10,10.64c-0.552,0-1-0.448-1-1c0-0.551-0.449-1-1-1s-1,0.449-1,1c0,0.552-0.448,1-1,1s-1-0.448-1-1
	c0-1.654,1.346-3,3-3s3,1.346,3,3C11,10.192,10.552,10.64,10,10.64z"/>
		<path fill="currentColor" d="M18,10.64c-0.553,0-1-0.448-1-1c0-0.551-0.448-1-1-1s-1,0.449-1,1c0,0.552-0.447,1-1,1s-1-0.448-1-1
	c0-1.654,1.346-3,3-3s3,1.346,3,3C19,10.192,18.553,10.64,18,10.64z"/>
		<path fill="currentColor" d="M20,24H1c-0.552,0-1-0.447-1-1V4c0-2.206,1.794-4,4-4h16c2.206,0,4,1.794,4,4v16C24,22.206,22.206,24,20,24z
	 M2,22h18c1.103,0,2-0.897,2-2V4c0-1.103-0.897-2-2-2H4C2.897,2,2,2.897,2,4V22z"/>
		<path fill="currentColor" d="M12.001,17.352c-2.002,0-3.985-0.65-5.616-1.924c-0.436-0.34-0.513-0.969-0.173-1.403
	c0.34-0.436,0.969-0.513,1.403-0.173c2.346,1.833,5.623,2.014,8.159,0.448l0.637-0.468c0.446-0.327,1.072-0.227,1.396,0.219
	c0.326,0.445,0.228,1.071-0.219,1.396l-0.7,0.511C15.379,16.893,13.684,17.352,12.001,17.352z"/>

	</symbol>
	<symbol id="app-products" viewBox="0 0 22.93 21.9">
		<path fill="currentColor" d="M5,21.9c-0.207,0-0.414-0.064-0.587-0.19c-0.308-0.224-0.462-0.603-0.398-0.978l1.142-6.683L0.302,9.316
	C0.029,9.05-0.069,8.653,0.049,8.291S0.479,7.665,0.856,7.61l6.71-0.975l3.007-6.079C10.743,0.216,11.09,0,11.47,0h0
	c0.381,0,0.729,0.216,0.896,0.558l2.997,6.078l6.709,0.975c0.377,0.055,0.689,0.319,0.808,0.681c0.117,0.362,0.02,0.759-0.253,1.025
	l-4.854,4.733l1.108,6.489c0.043,0.112,0.066,0.234,0.066,0.361c0,0.553-0.447,1-1,1c-0.006,0-0.013-0.001-0.02,0
	c-0.159,0-0.319-0.038-0.466-0.115l-5.994-3.155l-6.004,3.155C5.319,21.862,5.159,21.9,5,21.9z M3.148,9.298l3.78,3.686
	c0.235,0.229,0.343,0.561,0.288,0.884l-0.889,5.205l4.678-2.458c0.292-0.154,0.639-0.154,0.931,0l4.667,2.457l-0.888-5.204
	c-0.056-0.324,0.052-0.654,0.287-0.884l3.779-3.686L14.557,8.54c-0.326-0.047-0.607-0.252-0.753-0.547l-2.335-4.734L9.126,7.993
	C8.98,8.288,8.699,8.492,8.374,8.54L3.148,9.298z"/>

	</symbol>
	<symbol id="arrow-right-circle" viewBox="0 0 24 24">
		<path d="M10.8214 17.7751C10.5316 18.071 10.0567 18.0759 9.76081 17.786C9.46491 17.4962 9.46002 17.0213 9.74988 16.7254L14.3786 12.0002L9.74988 7.27508C9.46002 6.97918 9.46491 6.50433 9.76081 6.21448C10.0567 5.92462 10.5316 5.92951 10.8214 6.22541L15.9643 11.4754C16.2499 11.767 16.2499 12.2335 15.9643 12.5251L10.8214 17.7751Z" fill="currentColor"/>
		<path fill-rule="evenodd" clip-rule="evenodd" d="M12.0002 24.0002C5.37281 24.0002 0.000241419 18.6277 0.000239801 12.0002C0.000240091 5.37282 5.37281 0.000243326 12.0002 0.000243616C18.6277 0.000243906 24.0002 5.37282 24.0002 12.0002C24.0002 18.6277 18.6277 24.0002 12.0002 24.0002ZM12.0002 22.5002C6.20124 22.5002 1.50024 17.7992 1.50024 12.0002C1.50024 6.20124 6.20124 1.50024 12.0002 1.50024C17.7992 1.50024 22.5002 6.20124 22.5002 12.0002C22.5002 17.7992 17.7992 22.5002 12.0002 22.5002Z" fill="currentColor"/>

	</symbol>
	<symbol id="arrow-right" viewBox="0.25 0.3 15.471 11.4">
		<path fill="currentColor" d="M15.721,6c0-0.1-0.021-0.198-0.059-0.289c-0.038-0.091-0.093-0.173-0.161-0.242L10.55,0.52
	c-0.293-0.293-0.768-0.293-1.061,0s-0.293,0.768,0,1.061l3.671,3.67H1C0.586,5.25,0.25,5.586,0.25,6S0.586,6.75,1,6.75h12.16
	l-3.671,3.67c-0.293,0.293-0.293,0.768,0,1.061c0.146,0.146,0.338,0.22,0.53,0.22s0.384-0.073,0.53-0.22l4.951-4.95
	c0.068-0.068,0.123-0.151,0.161-0.242C15.7,6.198,15.721,6.1,15.721,6z"/>

	</symbol>
	<symbol id="book" viewBox="0 0 15 16">
		<path fill-rule="evenodd" clip-rule="evenodd" d="M15.0001 0.500004C15.0001 0.352844 14.9353 0.213156 14.8229 0.118154C14.7105 0.0231515 14.5619 -0.0175175 14.4168 0.006981L7.50006 1.17475L0.586201 0.00698673C0.44109 -0.0175227 0.292551 0.0231404 0.180157 0.118143C0.0677631 0.213145 0.00292969 0.352838 0.00292969 0.500004V14.3182C0.00292969 14.5622 0.179057 14.7706 0.419658 14.8112L7.40589 15.9912C7.46287 16.0021 7.52274 16.0033 7.58332 15.993L14.5833 14.8112C14.8239 14.7706 15.0001 14.5622 15.0001 14.3182V0.500004ZM8 14.9085L14.0001 13.8955V1.0915L8 2.1045V14.9085ZM1.00293 13.8956V1.09154L7 2.10445V14.9085L1.00293 13.8956Z" fill="currentColor"/>

	</symbol>
	<symbol id="brand-facebook" viewBox="0 0 22 22">
		<path fill-rule="evenodd" clip-rule="evenodd" d="M3.5 21.4738H10.0436C10.1074 21.4915 10.1747 21.5009 10.2441 21.5009C10.3136 21.5009 10.3809 21.4915 10.4447 21.4738H18.5C20.1569 21.4738 21.5 20.1307 21.5 18.4738V3.5C21.5 1.84315 20.1569 0.5 18.5 0.5H3.5C1.84315 0.5 0.5 1.84315 0.5 3.5V18.4738C0.5 20.1307 1.84315 21.4738 3.5 21.4738ZM18.5 2H3.5C2.67157 2 2 2.67157 2 3.5V18.4738C2 19.3022 2.67157 19.9738 3.5 19.9738H9.49414V12.5052H7.24414C6.82993 12.5052 6.49414 12.1694 6.49414 11.7552C6.49414 11.3409 6.82993 11.0052 7.24414 11.0052H9.49414V9.95955C9.49414 8.9519 9.73588 8.05713 10.3518 7.4164C10.973 6.77015 11.8498 6.5117 12.8375 6.5117H13.2441C13.6584 6.5117 13.9941 6.84749 13.9941 7.2617C13.9941 7.67591 13.6584 8.0117 13.2441 8.0117H12.8375C12.0964 8.0117 11.6764 8.20288 11.4332 8.45592C11.1846 8.71448 10.9941 9.16863 10.9941 9.95955V11.0052H13.2441C13.6584 11.0052 13.9941 11.3409 13.9941 11.7552C13.9941 12.1694 13.6584 12.5052 13.2441 12.5052H10.9941V19.9738H18.5C19.3284 19.9738 20 19.3022 20 18.4738V3.5C20 2.67157 19.3284 2 18.5 2Z" fill="currentColor"/>

	</symbol>
	<symbol id="brand-github" viewBox="0 0 17 16">
		<path d="M5.51378 12.8832C5.51378 12.9493 5.43734 13.0023 5.34096 13.0023C5.23128 13.0122 5.15484 12.9593 5.15484 12.8832C5.15484 12.817 5.23128 12.7641 5.32766 12.7641C5.42737 12.7541 5.51378 12.8071 5.51378 12.8832ZM4.48016 12.7343C4.45689 12.8005 4.52336 12.8766 4.62307 12.8964C4.70948 12.9295 4.80919 12.8964 4.82913 12.8302C4.84907 12.7641 4.78592 12.688 4.68622 12.6582C4.5998 12.635 4.50342 12.6681 4.48016 12.7343ZM5.94917 12.6781C5.85279 12.7012 5.78631 12.7641 5.79628 12.8402C5.80626 12.9063 5.89267 12.9493 5.99237 12.9262C6.08876 12.903 6.15523 12.8402 6.14526 12.774C6.13529 12.7111 6.04555 12.6681 5.94917 12.6781ZM8.13607 0C3.5263 0 0 3.48382 0 8.07266C0 11.7418 2.31984 14.8815 5.63343 15.9865C6.05885 16.0626 6.20841 15.8012 6.20841 15.5862C6.20841 15.3811 6.19844 14.2496 6.19844 13.5548C6.19844 13.5548 3.87195 14.0511 3.38338 12.5689C3.38338 12.5689 3.0045 11.6061 2.45943 11.358C2.45943 11.358 1.69834 10.8385 2.51261 10.8485C2.51261 10.8485 3.34018 10.9146 3.7955 11.7021C4.52336 12.9791 5.74311 12.6119 6.21838 12.3935C6.29482 11.8642 6.51085 11.4969 6.75015 11.2786C4.89228 11.0734 3.01779 10.8055 3.01779 7.62271C3.01779 6.71288 3.27038 6.25631 3.80215 5.67402C3.71574 5.45897 3.43324 4.5723 3.88856 3.42757C4.58319 3.21252 6.18182 4.32086 6.18182 4.32086C6.84653 4.13559 7.56109 4.03964 8.26901 4.03964C8.97693 4.03964 9.69149 4.13559 10.3562 4.32086C10.3562 4.32086 11.9548 3.20921 12.6495 3.42757C13.1048 4.57561 12.8223 5.45897 12.7359 5.67402C13.2676 6.25962 13.5934 6.71619 13.5934 7.62271C13.5934 10.8154 11.6358 11.0701 9.77791 11.2786C10.0837 11.5399 10.3429 12.0362 10.3429 12.8137C10.3429 13.9287 10.3329 15.3083 10.3329 15.5796C10.3329 15.7946 10.4858 16.056 10.9079 15.9799C14.2315 14.8815 16.4848 11.7418 16.4848 8.07266C16.4848 3.48382 12.7458 0 8.13607 0ZM3.2305 11.4109C3.18729 11.444 3.19726 11.5201 3.25376 11.5829C3.30694 11.6359 3.38338 11.659 3.42659 11.616C3.46979 11.5829 3.45982 11.5069 3.40332 11.444C3.35015 11.3911 3.2737 11.3679 3.2305 11.4109ZM2.87155 11.1429C2.84829 11.1859 2.88152 11.2389 2.948 11.272C3.00117 11.305 3.06764 11.2951 3.09091 11.2488C3.11417 11.2058 3.08094 11.1528 3.01447 11.1198C2.948 11.0999 2.89482 11.1098 2.87155 11.1429ZM3.94839 12.3207C3.89521 12.3637 3.91515 12.463 3.99159 12.5259C4.06804 12.602 4.16442 12.6119 4.20762 12.5589C4.25083 12.5159 4.23089 12.4167 4.16442 12.3538C4.0913 12.2777 3.99159 12.2678 3.94839 12.3207ZM3.5695 11.8344C3.51632 11.8675 3.51632 11.9535 3.5695 12.0296C3.62268 12.1057 3.71241 12.1388 3.75562 12.1057C3.8088 12.0627 3.8088 11.9767 3.75562 11.9006C3.70909 11.8245 3.62268 11.7914 3.5695 11.8344Z" fill="currentColor"/>

	</symbol>
	<symbol id="brand-linkedin" viewBox="0 0 24 24">
		<path d="M9 6.81067C9 7.22488 8.66421 7.56067 8.25 7.56067C7.83579 7.56067 7.5 7.22488 7.5 6.81067C7.5 6.39645 7.83579 6.06067 8.25 6.06067C8.66421 6.06067 9 6.39645 9 6.81067Z" fill="currentColor"/>
		<path d="M9 9.81067C9 9.39645 8.66421 9.06067 8.25 9.06067C7.83579 9.06067 7.5 9.39645 7.5 9.81067V15.8107C7.5 16.2249 7.83579 16.5607 8.25 16.5607C8.66421 16.5607 9 16.2249 9 15.8107V9.81067Z" fill="currentColor"/>
		<path d="M10.5 11.3208V15.8107C10.5 16.2249 10.8358 16.5607 11.25 16.5607C11.6642 16.5607 12 16.2249 12 15.8107V11.5562C12.6065 10.8119 13.7129 10.4112 14.7064 10.5531C15.2211 10.6266 15.6593 10.8407 15.9673 11.181C16.2696 11.5152 16.5 12.03 16.5 12.8107V15.8107C16.5 16.2249 16.8358 16.5607 17.25 16.5607C17.6642 16.5607 18 16.2249 18 15.8107V12.8107C18 11.7163 17.6679 10.8249 17.0796 10.1747C16.4969 9.53066 15.7164 9.18217 14.9186 9.06819C13.9443 8.92899 12.8744 9.13158 11.9815 9.64458C11.906 9.31029 11.6071 9.06067 11.25 9.06067C10.8358 9.06067 10.5 9.39645 10.5 9.81067V11.299C10.4999 11.3063 10.4999 11.3136 10.5 11.3208Z" fill="currentColor"/>
		<path fill-rule="evenodd" clip-rule="evenodd" d="M1.50732 4.61988C1.50732 2.90599 2.90648 1.50684 4.62037 1.50684H19.3894C21.1033 1.50684 22.5025 2.90599 22.5025 4.61988V19.3889C22.5025 21.1028 21.1033 22.502 19.3894 22.502H4.62037C2.90648 22.502 1.50732 21.1028 1.50732 19.3889V4.61988ZM4.62037 3.00684C3.73491 3.00684 3.00732 3.73442 3.00732 4.61988V19.3889C3.00732 20.2744 3.73491 21.002 4.62037 21.002H19.3894C20.2749 21.002 21.0025 20.2744 21.0025 19.3889V4.61988C21.0025 3.73442 20.2749 3.00684 19.3894 3.00684H4.62037Z" fill="currentColor"/>

	</symbol>
	<symbol id="brand-slack" viewBox="0 0 14 14">
		<path d="M2.94125 8.84688C2.94125 9.65625 2.28 10.3175 1.47063 10.3175C0.66125 10.3175 0 9.65625 0 8.84688C0 8.0375 0.66125 7.37625 1.47063 7.37625H2.94125V8.84688ZM3.6825 8.84688C3.6825 8.0375 4.34375 7.37625 5.15312 7.37625C5.9625 7.37625 6.62375 8.0375 6.62375 8.84688V12.5294C6.62375 13.3387 5.9625 14 5.15312 14C4.34375 14 3.6825 13.3387 3.6825 12.5294V8.84688ZM5.15312 2.94125C4.34375 2.94125 3.6825 2.28 3.6825 1.47062C3.6825 0.66125 4.34375 0 5.15312 0C5.9625 0 6.62375 0.66125 6.62375 1.47062V2.94125H5.15312ZM5.15312 3.6825C5.9625 3.6825 6.62375 4.34375 6.62375 5.15312C6.62375 5.9625 5.9625 6.62375 5.15312 6.62375H1.47063C0.66125 6.62375 0 5.9625 0 5.15312C0 4.34375 0.66125 3.6825 1.47063 3.6825H5.15312ZM11.0588 5.15312C11.0588 4.34375 11.72 3.6825 12.5294 3.6825C13.3387 3.6825 14 4.34375 14 5.15312C14 5.9625 13.3387 6.62375 12.5294 6.62375H11.0588V5.15312ZM10.3175 5.15312C10.3175 5.9625 9.65625 6.62375 8.84688 6.62375C8.0375 6.62375 7.37625 5.9625 7.37625 5.15312V1.47062C7.37625 0.66125 8.0375 0 8.84688 0C9.65625 0 10.3175 0.66125 10.3175 1.47062V5.15312ZM8.84688 11.0588C9.65625 11.0588 10.3175 11.72 10.3175 12.5294C10.3175 13.3387 9.65625 14 8.84688 14C8.0375 14 7.37625 13.3387 7.37625 12.5294V11.0588H8.84688ZM8.84688 10.3175C8.0375 10.3175 7.37625 9.65625 7.37625 8.84688C7.37625 8.0375 8.0375 7.37625 8.84688 7.37625H12.5294C13.3387 7.37625 14 8.0375 14 8.84688C14 9.65625 13.3387 10.3175 12.5294 10.3175H8.84688Z" fill="currentColor"/>

	</symbol>
	<symbol id="brand-stack-overflow" viewBox="0 0 18 22">
		<path d="M4.37353 13.5781L13.547 11.6422L13.9313 13.4844L4.75791 15.4062L4.37353 13.5781ZM1.98291 9.5L9.17822 3.48594L10.3735 4.92969L3.17822 10.9437L1.98291 9.5ZM3.44541 11.3609L11.9438 7.39062L12.7267 9.10156L4.23291 13.0625L3.44541 11.3609ZM5.71885 0.499999L7.21885 1.625L1.62666 9.13906L0.126661 8.01406L5.71885 0.499999ZM4.75791 15.875L14.1329 15.875L14.1329 17.7359L4.75791 17.7359L4.75791 15.875ZM2.89697 19.625L15.9985 19.625L15.9985 14L17.8735 14L17.8735 21.5L1.02197 21.5L1.02197 14L2.89697 14L2.89697 19.625Z" fill="currentColor"/>

	</symbol>
	<symbol id="brand-twitter" viewBox="0 0 22 22">
		<path fill-rule="evenodd" clip-rule="evenodd" d="M15.9563 5.75476C16.105 5.75476 16.4038 5.75476 16.7026 5.90491C16.8521 6.05469 17.0015 6.20483 17.0015 6.50476C17.0015 7.40491 16.4038 8.30469 15.9563 8.75476C15.9563 10.7048 15.0598 12.8047 13.7158 14.3047C12.5205 15.6549 11.0271 16.2548 9.38428 16.2548C7.74146 16.2548 6.24805 15.5048 5.50098 15.2048C5.29517 14.9979 5.15967 14.791 5.14502 14.535C5.13843 14.4197 5.15601 14.2944 5.20215 14.1549C5.20215 13.9875 5.34131 13.8671 5.51636 13.7931C5.65552 13.7341 5.81665 13.7048 5.94922 13.7048C6.54688 13.8546 7.1438 13.2548 7.59204 12.8047C7.44263 12.5048 7.1438 12.3546 6.99438 12.0547C5.7998 10.8546 4.75464 8.60461 5.05273 6.35461C5.20215 6.05469 5.35156 5.90491 5.65039 5.75476C5.94922 5.75476 6.24805 5.75476 6.39746 6.05469C6.86914 6.62415 7.70044 7.19324 8.62476 7.61072C9.16235 7.85315 9.73145 8.04468 10.2808 8.15491L10.283 8.14832C10.4316 7.70044 10.5803 7.25256 10.8777 6.80469C11.7742 5.75476 13.5664 5.45483 14.761 6.35461C14.8511 6.30957 14.9551 6.26416 15.0686 6.21472C15.3308 6.10046 15.6436 5.96423 15.9563 5.75476ZM12.6699 13.2548C14.0146 11.9049 14.4622 9.80469 14.4622 8.45483C14.4622 8.30469 14.6116 8.00476 14.761 7.85461C14.6116 7.85461 14.3127 7.85461 14.1641 7.70483C13.5664 7.10461 12.5205 7.25476 12.073 7.70483C11.7742 8.00476 11.6248 8.30469 11.7742 8.75476C11.8555 8.91736 11.8481 9.07996 11.8005 9.21875C11.761 9.33594 11.6929 9.43591 11.6248 9.50476C11.4753 9.65491 11.3259 9.80469 11.0271 9.80469C9.68311 9.65491 8.04028 9.20483 6.69629 8.30469C7.1438 10.2548 8.63721 11.9049 9.08545 12.0547C9.38428 12.0547 9.68311 12.2048 9.68311 12.5048C9.83252 12.9548 9.68311 13.2548 9.38428 13.4049C9.23486 13.5547 8.93604 13.7048 8.78662 13.8546C8.63721 14.0051 8.48706 14.1179 8.33691 14.2307C8.18823 14.3428 8.03955 14.4552 7.89087 14.6046C9.83252 15.0547 11.3259 14.6046 12.6699 13.2548Z" fill="currentColor"/>
		<path fill-rule="evenodd" clip-rule="evenodd" d="M3.61426 0.503662C1.89966 0.503662 0.5 1.90332 0.5 3.61755V18.392C0.5 20.1062 1.89966 21.5059 3.61426 21.5059H18.3887C20.1025 21.5059 21.5022 20.1062 21.5022 18.392V3.61755C21.5022 1.90332 20.1025 0.503662 18.3887 0.503662H3.61426ZM2 3.61755C2 2.73169 2.72803 2.00366 3.61426 2.00366H18.3887C19.2742 2.00366 20.0022 2.73169 20.0022 3.61755V18.392C20.0022 19.2778 19.2742 20.0059 18.3887 20.0059H3.61426C2.72803 20.0059 2 19.2778 2 18.392V3.61755Z" fill="currentColor"/>

	</symbol>
	<symbol id="bubble" viewBox="0 0 16 16">
		<path d="M4 4.5C4 4.22386 4.22386 4 4.5 4H8.5C8.77614 4 9 4.22386 9 4.5C9 4.77614 8.77614 5 8.5 5H4.5C4.22386 5 4 4.77614 4 4.5Z" fill="currentColor"/>
		<path d="M4.5 7C4.22386 7 4 7.22386 4 7.5C4 7.77614 4.22386 8 4.5 8H10.5005C10.7766 8 11.0005 7.77614 11.0005 7.5C11.0005 7.22386 10.7766 7 10.5005 7H4.5Z" fill="currentColor"/>
		<path fill-rule="evenodd" clip-rule="evenodd" d="M2.46763e-05 2.31818C2.46763e-05 1.04204 1.04206 0 2.3182 0H13.6818C14.958 0 16 1.04204 16 2.31818V10.6947C16 11.9739 14.9549 13.0044 13.6818 13.0044H8.18465L4.82276 15.88C4.67444 16.0068 4.46587 16.0358 4.28859 15.9541C4.11132 15.8725 3.99776 15.6952 3.99776 15.5V13.0044H2.31818C1.0451 13.0044 0 11.9739 0 10.6947L2.46763e-05 2.31818ZM2.3182 1C1.59435 1 1.00002 1.59432 1.00002 2.31818L1 10.6947C1 11.4155 1.59126 12.0044 2.31818 12.0044H4.49776C4.7739 12.0044 4.99776 12.2283 4.99776 12.5044V14.4144L7.67499 12.1244C7.76555 12.047 7.88081 12.0044 7.99999 12.0044H13.6818C14.4087 12.0044 15 11.4155 15 10.6947V2.31818C15 1.59432 14.4057 1 13.6818 1H2.3182Z" fill="currentColor"/>

	</symbol>
	<symbol id="calendar" viewBox="0.25 0.25 19.5 19.5">
		<path fill="currentColor" d="M17,1.89h-1.34V1c0-0.414-0.336-0.75-0.75-0.75S14.16,0.586,14.16,1v0.89H5.84V1
	c0-0.414-0.336-0.75-0.75-0.75S4.34,0.586,4.34,1v0.89H3c-1.517,0-2.75,1.233-2.75,2.75V17c0,1.517,1.233,2.75,2.75,2.75h14
	c1.517,0,2.75-1.233,2.75-2.75V4.64C19.75,3.124,18.517,1.89,17,1.89z M3,3.39h1.34v1.7c0,0.414,0.336,0.75,0.75,0.75
	s0.75-0.336,0.75-0.75v-1.7h8.32v1.7c0,0.414,0.336,0.75,0.75,0.75s0.75-0.336,0.75-0.75v-1.7H17c0.689,0,1.25,0.561,1.25,1.25V7.2
	H1.75V4.64C1.75,3.951,2.311,3.39,3,3.39z M17,18.25H3c-0.689,0-1.25-0.561-1.25-1.25V8.7h16.5V17
	C18.25,17.689,17.689,18.25,17,18.25z"/>

	</symbol>
	<symbol id="certificate" viewBox="0.92 0.25 18.16 21.5">
		<path d="M16.33,0.25H3.67C2.154,0.25,0.92,1.484,0.92,3v13.58c0,1.518,1.234,2.75,2.75,2.75h4.65V21
	c0,0.264,0.139,0.509,0.366,0.645c0.118,0.07,0.251,0.105,0.384,0.105c0.123,0,0.245-0.03,0.356-0.09l2.424-1.309l2.424,1.309
	c0.232,0.125,0.516,0.119,0.742-0.016c0.227-0.137,0.364-0.381,0.364-0.646v-1.67h0.95c1.518,0,2.75-1.233,2.75-2.75V3
	C19.08,1.484,17.848,0.25,16.33,0.25z M11.85,14.62c-1.625,0-2.95-1.323-2.95-2.95s1.323-2.95,2.95-2.95
	c1.627,0,2.95,1.323,2.95,2.95S13.477,14.62,11.85,14.62z M13.88,19.743l-1.674-0.903c-0.224-0.119-0.49-0.119-0.713,0L9.82,19.743
	v-4.136c0.611,0.315,1.293,0.513,2.03,0.513s1.42-0.196,2.03-0.513V19.743z M17.58,16.58c0,0.689-0.561,1.25-1.25,1.25h-0.95v-3.48
	c0.569-0.748,0.92-1.67,0.92-2.68c0-2.454-1.995-4.45-4.45-4.45c-0.673,0-1.305,0.162-1.876,0.43H5.37
	c-0.414,0-0.75,0.336-0.75,0.75s0.336,0.75,0.75,0.75h2.818C7.693,9.867,7.4,10.734,7.4,11.67c0,1.01,0.351,1.932,0.92,2.68v3.48
	H3.67c-0.689,0-1.25-0.561-1.25-1.25V3c0-0.689,0.561-1.25,1.25-1.25h12.66c0.689,0,1.25,0.561,1.25,1.25V16.58z"/>
		<path d="M14.63,3.95H5.37c-0.414,0-0.75,0.336-0.75,0.75s0.336,0.75,0.75,0.75h9.26c0.414,0,0.75-0.336,0.75-0.75
	S15.044,3.95,14.63,3.95z"/>

	</symbol>
	<symbol id="chat" viewBox="0.25 0.25 21.5 21.5">
		<path d="M19,7.52h-4.52V3c0-1.516-1.233-2.75-2.75-2.75H3C1.484,0.25,0.25,1.484,0.25,3v6.41c0,1.516,1.234,2.75,2.75,2.75h0.14
	v1.56c0,0.268,0.142,0.515,0.373,0.648C3.63,14.436,3.76,14.47,3.89,14.47c0.128,0,0.256-0.033,0.372-0.099l3.258-1.858v3.757
	c0,1.517,1.233,2.75,2.75,2.75h4.105l3.348,2.575c0.134,0.103,0.295,0.155,0.457,0.155c0.109,0,0.219-0.023,0.321-0.072
	c0.255-0.121,0.42-0.374,0.429-0.655l0.059-2.003H19c1.517,0,2.75-1.233,2.75-2.75v-6C21.75,8.753,20.517,7.52,19,7.52z
	 M4.64,12.429V11.41c0-0.414-0.336-0.75-0.75-0.75H3c-0.689,0-1.25-0.561-1.25-1.25V3c0-0.689,0.561-1.25,1.25-1.25h8.73
	c0.689,0,1.25,0.561,1.25,1.25v4.52h-2.71c-1.517,0-2.75,1.233-2.75,2.75v0.516L4.64,12.429z M20.25,16.27
	c0,0.689-0.561,1.25-1.25,1.25h-0.74c-0.405,0-0.737,0.322-0.75,0.728l-0.037,1.264l-2.386-1.836
	c-0.131-0.101-0.292-0.155-0.457-0.155h-4.36c-0.689,0-1.25-0.561-1.25-1.25v-6c0-0.689,0.561-1.25,1.25-1.25H19
	c0.689,0,1.25,0.561,1.25,1.25V16.27z"/>

	</symbol>
	<symbol id="check" viewBox="0 0 512 512">
		<path fill="currentColor" d="M470.6 105.4c12.5 12.5 12.5 32.8 0 45.3l-256 256c-12.5 12.5-32.8 12.5-45.3 0l-128-128c-12.5-12.5-12.5-32.8 0-45.3s32.8-12.5 45.3 0L192 338.7 425.4 105.4c12.5-12.5 32.8-12.5 45.3 0z"/>

	</symbol>
	<symbol id="checkbox" viewBox="0 0 24 25">
		<path fill="transparent" d="M4.00024 1.87988H20.0002C21.6602 1.87988 23.0002 3.21988 23.0002 4.87988V20.8799C23.0002 22.5399 21.6602 23.8799 20.0002 23.8799H1.00024V4.87988C1.00024 3.21988 2.34024 1.87988 4.00024 1.87988Z" stroke="currentColor" stroke-width="2" stroke-linecap="round" stroke-linejoin="round"/>
		<path fill="transparent" d="M6.00024 13.5399L10.3402 17.8799L18.0002 7.87988" stroke="currentColor" stroke-width="2" stroke-linecap="round" stroke-linejoin="round"/>

	</symbol>
	<symbol id="chevron-down-thick" viewBox="0.793 0.293 16.414 9.621">
		<polygon fill="currentColor" points="9,9.914 0.793,1.707 2.207,0.293 9,7.086 15.793,0.293 17.207,1.707"/>

	</symbol>
	<symbol id="chevron-down" viewBox="0 0 12.811 6.687">
		<g transform="translate(1.404 1.407)">
			<path d="M0,0,4,4.927,0,10" transform="translate(10 0) rotate(90)" fill="none" stroke="currentColor" stroke-linecap="round" stroke-miterlimit="10" stroke-width="2"/>
		</g>

	</symbol>
	<symbol id="chevron-left" viewBox="-0.002 -2.998 12.811 12.811">
		<g transform="translate(1.404 1.407)">
			<path fill="none" stroke="currentColor" stroke-width="2" stroke-linecap="round" stroke-miterlimit="10" d="M7,7L3,2.073L7-3"/>
		</g>

	</symbol>
	<symbol id="chevron-right" viewBox="0 0 12.811 6.687">
		<g transform="translate(1.404 1.407)">
			<path d="M0,0,4,4.927,0,10" transform="translate(3 -3)" fill="none" stroke="currentColor" stroke-linecap="round" stroke-miterlimit="10" stroke-width="2"/>
		</g>

	</symbol>
	<symbol id="chevron-up-thick" viewBox="0.793 0.293 16.414 9.621">
		<polygon fill="currentColor" points="9,0.293 17.207,8.5 15.793,9.914 9,3.121 2.207,9.914 0.793,8.5"/>

	</symbol>
	<symbol id="cross" viewBox="1 1 13.998 13.998">
		<path id="icon" fill="#151515" d="M1.854,1.146c-0.195-0.195-0.512-0.195-0.707,0s-0.195,0.512,0,0.707l6.146,6.146l-6.146,6.146
	c-0.195,0.195-0.195,0.512,0,0.707s0.512,0.195,0.707,0l6.146-6.146l6.146,6.146c0.195,0.195,0.512,0.195,0.707,0
	s0.195-0.512,0-0.707L8.706,7.999l6.146-6.145c0.195-0.195,0.195-0.512,0-0.707s-0.512-0.195-0.707,0L7.999,7.292L1.854,1.146z"/>

	</symbol>
	<symbol id="double-up" viewBox="0 0 14 11">
		<path d="M13.7819 10.0852C14.01 10.2412 14.0687 10.5528 13.9131 10.7814C13.7574 11.0099 13.4463 11.0687 13.2182 10.9128L7.00005 6.66188L0.781864 10.9128C0.553763 11.0687 0.242678 11.0099 0.0870352 10.7814C-0.0686074 10.5528 -0.00986864 10.2412 0.218232 10.0852L6.71823 5.64164C6.88821 5.52543 7.11189 5.52543 7.28186 5.64164L13.7819 10.0852Z" fill="currentColor"/>
		<path d="M13.7819 4.53073C14.01 4.68667 14.0687 4.99834 13.9131 5.22687C13.7574 5.4554 13.4463 5.51425 13.2182 5.35832L7.00005 1.10739L0.781864 5.35832C0.553763 5.51425 0.242678 5.4554 0.0870352 5.22687C-0.0686074 4.99834 -0.00986864 4.68667 0.218232 4.53073L6.71823 0.0871505C6.88821 -0.0290502 7.11189 -0.0290502 7.28186 0.0871505L13.7819 4.53073Z" fill="currentColor"/>

	</symbol>
	<symbol id="download" viewBox="0 0 21 21">
		<path d="M1.85962 19.8809H19.8596" stroke="currentColor" stroke-width="2" stroke-linecap="round" stroke-linejoin="round"/>
		<path d="M10.8596 1.19043V15.5004" stroke="currentColor" stroke-width="2" stroke-linecap="round" stroke-linejoin="round"/>
		<path fill="transparent" d="M15.8097 10.5605L10.8597 15.5105L5.90967 10.5605" stroke="currentColor" stroke-width="2" stroke-linecap="round" stroke-linejoin="round"/>

	</symbol>
	<symbol id="envelope" viewBox="0 0 15 13">
		<path fill-rule="evenodd" clip-rule="evenodd" d="M12.9999 0.00488281C12.9999 0.00488281 13 0.00488281 12.9999 0.00488281H13.0015C13.5537 0.00488281 14.0015 0.452598 14.0015 1.00488V11.0036C14.0015 11.5559 13.5537 12.0036 13.0015 12.0036H1.00147C0.449181 12.0036 0.00146484 11.5559 0.00146484 11.0036V1.00488C0.00146484 0.454232 0.446533 0.00753552 0.996561 0.00489456C0.998195 0.00488671 0.999829 0.00488281 1.00146 0.00488281H12.9999ZM1.00146 1.21345V11.0036L13.0015 11.0036V1.21053L7.35355 6.85844C7.15829 7.0537 6.84171 7.0537 6.64645 6.85844L1.00146 1.21345ZM2.20711 1.00488L11.7929 1.00488L7 5.79778L2.20711 1.00488Z" fill="currentColor"/>

	</symbol>
	<symbol id="external-link" viewBox="0 0 22 22">
		<path fill-rule="evenodd" clip-rule="evenodd" d="M4.25 2C3.00736 2 2 3.00736 2 4.25V17.75C2 18.9926 3.00736 20 4.25 20H17.75C18.9926 20 20 18.9926 20 17.75V11.7656C20 11.3514 20.3358 11.0156 20.75 11.0156C21.1642 11.0156 21.5 11.3514 21.5 11.7656V17.75C21.5 19.8211 19.8211 21.5 17.75 21.5H4.25C2.17893 21.5 0.5 19.8211 0.5 17.75V4.25C0.5 2.17893 2.17893 0.5 4.25 0.5H10.2543C10.6685 0.5 11.0043 0.835786 11.0043 1.25C11.0043 1.66421 10.6685 2 10.2543 2H4.25ZM13.999 1.25C13.999 0.835786 14.3348 0.5 14.749 0.5H20.75C20.9489 0.5 21.1397 0.579018 21.2803 0.71967C21.421 0.860322 21.5 1.05109 21.5 1.25V7.24651C21.5 7.66072 21.1642 7.99651 20.75 7.99651C20.3358 7.99651 20 7.66072 20 7.24651V3.06066L12.4167 10.644C12.1238 10.9369 11.6489 10.9369 11.356 10.644C11.0631 10.3511 11.0631 9.8762 11.356 9.58331L18.9393 2H14.749C14.3348 2 13.999 1.66421 13.999 1.25Z" fill="currentColor"/>

	</symbol>
	<symbol id="graduate-cap" viewBox="0 0 16 14">
		<path fill-rule="evenodd" clip-rule="evenodd" d="M7.78547 1.04532C7.91944 0.982859 8.07422 0.982859 8.20819 1.04532L15.6624 4.52056C15.8588 4.58785 16 4.77395 16 4.99301V10.5239C16 10.7997 15.7762 11.0232 15.5002 11.0232C15.2242 11.0232 15.0004 10.7997 15.0004 10.5239V5.77407L12.9883 6.71213C12.9941 6.74239 12.9971 6.77361 12.9971 6.80554V10.5244C12.9971 11.5664 12.3584 12.4472 11.4554 13.0442C10.5486 13.6439 9.32496 13.9985 7.99847 13.9985C6.67198 13.9985 5.44831 13.6439 4.54149 13.0442C3.63851 12.4472 2.99988 11.5664 2.99988 10.5244V6.80554C2.99988 6.77411 3.00279 6.74336 3.00835 6.71354L0.288443 5.44548C0.112475 5.36344 0 5.187 0 4.99301C0 4.79901 0.112475 4.62257 0.288443 4.54053L7.78547 1.04532ZM3.99949 7.17562V10.5244C3.99949 11.1253 4.36795 11.7319 5.09321 12.2115C5.81463 12.6885 6.84035 12.9998 7.99847 12.9998C9.15659 12.9998 10.1823 12.6885 10.9037 12.2115C11.629 11.7319 11.9975 11.1253 11.9975 10.5244V7.17409L8.20819 8.94069C8.07422 9.00315 7.91944 9.00315 7.78547 8.94069L3.99949 7.17562ZM1.68169 4.99301L7.99683 7.93721L14.312 4.99301L7.99683 2.0488L1.68169 4.99301Z" fill="currentColor"/>

	</symbol>
	<symbol id="heart" viewBox="1.25 2.82 21.5 18.37">
		<g id="Heart_Love">
			<path d="M12,21.189c-0.101,0-0.202-0.021-0.297-0.062c-0.914-0.395-8.517-7.362-8.583-7.428c-1.188-1.176-1.87-2.82-1.87-4.51
		c0.011-3.514,2.873-6.37,6.38-6.37c0.866,0,1.742,0.215,2.533,0.623C10.856,3.81,11.472,4.282,12,4.852
		c0.527-0.568,1.142-1.042,1.829-1.405c0.786-0.411,1.664-0.627,2.541-0.627c3.518,0,6.38,2.857,6.38,6.37
		c0,1.703-0.664,3.305-1.87,4.51c-0.073,0.071-7.682,7.039-8.583,7.428C12.202,21.169,12.101,21.189,12,21.189z M7.63,4.32
		c-2.682,0-4.872,2.186-4.88,4.873c0,1.29,0.521,2.546,1.428,3.444c0.547,0.547,6.26,5.682,7.822,6.895
		c1.533-1.191,7.088-6.174,7.825-6.896c0.918-0.917,1.426-2.143,1.426-3.445c0-2.686-2.189-4.87-4.88-4.87
		c-0.637,0-1.273,0.157-1.843,0.455c-0.591,0.313-1.117,0.732-1.56,1.246c-0.128,0.146-0.243,0.298-0.359,0.458
		c-0.144,0.199-0.375,0.308-0.622,0.312c-0.246-0.004-0.474-0.129-0.61-0.334c-0.083-0.124-0.178-0.236-0.274-0.352l-0.081-0.098
		c-0.431-0.499-0.957-0.919-1.552-1.233C8.896,4.478,8.258,4.32,7.63,4.32z"/>
		</g>

	</symbol>
	<symbol id="i-circle" viewBox="0 0 16 16">
		<path fill-rule="evenodd" clip-rule="evenodd" d="M15 8C15 4.134 11.866 0.999999 8 0.999999C4.134 0.999999 1 4.134 1 8C1 11.866 4.134 15 8 15C11.866 15 15 11.866 15 8ZM16 8C16 3.58171 12.4183 0 8 0C3.58171 0 0 3.58171 0 8C0 12.4183 3.58171 16 8 16C12.4183 16 16 12.4183 16 8ZM9 5.00025C9 4.44703 8.552 3.99805 8 3.99805C7.448 3.99805 7 4.44703 7 5.00025C7 5.55346 7.448 6.00245 8 6.00245C8.552 6.00245 9 5.55346 9 5.00025ZM8 11.998C7.44772 11.998 7 11.5493 7 10.9958V7.98924C7 7.43574 7.44772 7 8 7C8.55229 7 9 7.43574 9 7.98924V10.9958C9 11.5493 8.55228 11.998 8 11.998Z" fill="currentColor"/>

	</symbol>
	<symbol id="id-card" viewBox="0.25 0.16 21.5 19.68">
		<path fill="currentColor" d="M21,3.47h-6.17c-0.414,0-0.75,0.336-0.75,0.75s0.336,0.75,0.75,0.75h5.42v13.37H1.75V4.97h3.87
	c0.414,0,0.75-0.336,0.75-0.75S6.034,3.47,5.62,3.47H1c-0.414,0-0.75,0.336-0.75,0.75v14.87c0,0.414,0.336,0.75,0.75,0.75h20
	c0.414,0,0.75-0.336,0.75-0.75V4.22C21.75,3.806,21.414,3.47,21,3.47z"/>
		<path fill="currentColor" d="M5.74,1.66h9.92c0.414,0,0.75-0.336,0.75-0.75s-0.336-0.75-0.75-0.75H5.74c-0.414,0-0.75,0.336-0.75,0.75
	S5.326,1.66,5.74,1.66z"/>
		<path fill="currentColor" d="M18.279,8.34h-3.639c-0.414,0-0.75,0.336-0.75,0.75s0.336,0.75,0.75,0.75h3.639c0.414,0,0.75-0.336,0.75-0.75
	S18.693,8.34,18.279,8.34z"/>
		<path fill="currentColor" d="M18.279,11.98h-3.639c-0.414,0-0.75,0.336-0.75,0.75s0.336,0.75,0.75,0.75h3.639c0.414,0,0.75-0.336,0.75-0.75
	S18.693,11.98,18.279,11.98z"/>
		<path fill="currentColor" d="M2.98,15.98c0,0.414,0.336,0.75,0.75,0.75s0.75-0.336,0.75-0.75c0-1.683,0.945-2.5,2.89-2.5c1.944,0,2.89,0.817,2.89,2.5
	c0,0.414,0.336,0.75,0.75,0.75s0.75-0.336,0.75-0.75c0-1.682-0.713-2.876-1.995-3.5c0.644-0.633,1.045-1.51,1.045-2.48
	c0-1.919-1.561-3.48-3.48-3.48S3.85,8.081,3.85,10c0,0.983,0.414,1.869,1.072,2.503C3.673,13.135,2.98,14.321,2.98,15.98z
	 M7.33,8.02c1.092,0,1.98,0.888,1.98,1.98s-0.888,1.98-1.98,1.98S5.35,11.092,5.35,10S6.238,8.02,7.33,8.02z"/>

	</symbol>
	<symbol id="left-right" viewBox="0 0 24 25">
		<path d="M13.9502 4.87988H1.9502" stroke="currentColor" stroke-width="2" stroke-linecap="round" stroke-linejoin="round"/>
		<path fill="transparent" d="M4.00024 1.87988L1.00024 4.87988L4.00024 7.87988" stroke="currentColor" stroke-width="2" stroke-linecap="round" stroke-linejoin="round"/>
		<path d="M10.0505 20.8809H22.0505" stroke="currentColor" stroke-width="2" stroke-linecap="round" stroke-linejoin="round"/>
		<path fill="transparent" d="M20.0002 17.8809L23.0002 20.8809L20.0002 23.8809" stroke="currentColor" stroke-width="2" stroke-linecap="round" stroke-linejoin="round"/>
		<path fill="transparent" d="M12.0007 16.8799C14.2099 16.8799 16.0007 15.089 16.0007 12.8799C16.0007 10.6707 14.2099 8.87988 12.0007 8.87988C9.79159 8.87988 8.00073 10.6707 8.00073 12.8799C8.00073 15.089 9.79159 16.8799 12.0007 16.8799Z" stroke="currentColor" stroke-width="2" stroke-linecap="round" stroke-linejoin="round"/>

	</symbol>
	<symbol id="map-pin" viewBox="0.98 0.25 16.04 21.5">
		<path fill="currentColor" d="M9,21.75c-0.222,0-0.433-0.099-0.576-0.27C8.12,21.116,0.98,12.513,0.98,8.27c0-4.422,3.598-8.02,8.02-8.02
		c4.422,0,8.02,3.598,8.02,8.02c0,4.243-7.14,12.846-7.443,13.21C9.433,21.651,9.222,21.75,9,21.75z M9,1.75
		c-3.595,0-6.52,2.925-6.52,6.52c0,2.81,4.276,8.738,6.52,11.543c2.243-2.807,6.52-8.736,6.52-11.543
		C15.52,4.675,12.595,1.75,9,1.75z"/>
		<path fill="currentColor" d="M9,11.75c-1.919,0-3.48-1.561-3.48-3.48S7.081,4.79,9,4.79s3.48,1.561,3.48,3.48S10.919,11.75,9,11.75z M9,6.29
		c-1.092,0-1.98,0.888-1.98,1.98S7.908,10.25,9,10.25s1.98-0.888,1.98-1.98S10.092,6.29,9,6.29z"/>

	</symbol>
	<symbol id="pagination-left-end" viewBox="0 0 10 14">
		<path d="M2.18244e-08 0.499285C9.73662e-09 0.223537 0.224177 -9.83361e-09 0.500714 -2.18869e-08C0.777251 -3.39402e-08 1.00143 0.223537 1.00143 0.499285L1.00143 13.4807C1.00143 13.7564 0.777251 13.98 0.500715 13.98C0.224178 13.98 6.02971e-07 13.7564 5.90883e-07 13.4807L2.18244e-08 0.499285Z" fill="black"/>
		<path d="M9.09452 13.7946C9.25734 14.0175 9.57053 14.0666 9.79405 13.9043C10.0176 13.7419 10.0668 13.4296 9.90398 13.2067L5.12862 7.00998L9.90398 0.813237C10.0668 0.590349 10.0176 0.278052 9.79405 0.115701C9.57053 -0.0466484 9.25734 0.00242706 9.09452 0.225314L4.10442 6.71602C3.97645 6.89122 3.97645 7.12874 4.10442 7.30394L9.09452 13.7946Z" fill="black"/>

	</symbol>
	<symbol id="pagination-left" viewBox="0 0 7 14">
		<path fill-rule="evenodd" clip-rule="evenodd" d="M6.27633 0.0839534C6.04564 -0.0691609 5.73402 -0.00699033 5.58032 0.222815L0.584223 6.72282C0.471926 6.89071 0.471926 7.10939 0.584223 7.27729L5.58032 13.7773C5.73403 14.0071 6.04564 14.0693 6.27633 13.9162C6.50702 13.763 6.56943 13.4526 6.41572 13.2228L1.60505 7.00005L6.41572 0.777291C6.56943 0.547485 6.50702 0.237068 6.27633 0.0839534Z" fill="currentColor"/>

	</symbol>
	<symbol id="pagination-right-end" viewBox="0 0 10 15">
		<path d="M9.99817 1.49854C9.99817 1.22239 9.77431 0.998536 9.49817 0.998536C9.22203 0.998536 8.99817 1.22239 8.99817 1.49854V14.5008C8.99817 14.7769 9.22203 15.0008 9.49817 15.0008C9.77431 15.0008 9.99817 14.7769 9.99817 14.5008V1.49854Z" fill="currentColor"/>
		<path d="M0.904404 14.7949C0.741984 15.0183 0.429275 15.0676 0.20595 14.9052C-0.017377 14.7428 -0.0667516 14.4301 0.0956668 14.2068L4.60988 7.99971L0.0956673 1.79266C-0.066751 1.56933 -0.0173764 1.25662 0.20595 1.0942C0.429276 0.931783 0.741985 0.981159 0.904404 1.20448L5.6325 7.70562C5.76001 7.88094 5.76001 8.11847 5.6325 8.29379L0.904404 14.7949Z" fill="currentColor"/>

	</symbol>
	<symbol id="pagination-right" viewBox="0 0 7 14">
		<path fill-rule="evenodd" clip-rule="evenodd" d="M0.721736 0.0842168C0.950643 -0.069116 1.2601 -0.0072407 1.41293 0.222419L6.41611 6.72218C6.52796 6.89026 6.52796 7.10937 6.41611 7.27745L1.41293 13.7777C1.2601 14.0073 0.950641 14.0692 0.721735 13.9159C0.492829 13.7626 0.431156 13.4521 0.583986 13.2224L5.40241 6.99981L0.583987 0.777686C0.431158 0.548027 0.49283 0.23755 0.721736 0.0842168Z" fill="currentColor"/>

	</symbol>
	<symbol id="picture-placeholder" viewBox="0 0 22 22">
		<path fill-rule="evenodd" clip-rule="evenodd" d="M7.5 11C9.433 11 11 9.433 11 7.5C11 5.567 9.433 4 7.5 4C5.567 4 4 5.567 4 7.5C4 9.433 5.567 11 7.5 11ZM7.5 9.5C8.60457 9.5 9.5 8.60457 9.5 7.5C9.5 6.39543 8.60457 5.5 7.5 5.5C6.39543 5.5 5.5 6.39543 5.5 7.5C5.5 8.60457 6.39543 9.5 7.5 9.5Z" fill="currentColor"/>
		<path fill-rule="evenodd" clip-rule="evenodd" d="M3.5 0.5C1.84315 0.5 0.5 1.84315 0.5 3.5V18.5C0.5 20.1569 1.84315 21.5 3.5 21.5H18.5C20.1569 21.5 21.5 20.1569 21.5 18.5V3.5C21.5 1.84315 20.1569 0.5 18.5 0.5H3.5ZM18.5 2H3.5C2.67157 2 2 2.67157 2 3.5V17.1893L6.09467 13.0947C6.23532 12.954 6.42609 12.875 6.625 12.875C6.82391 12.875 7.01468 12.954 7.15533 13.0947L10.125 16.0643L16.5947 9.59467C16.7353 9.45402 16.9261 9.375 17.125 9.375C17.3239 9.375 17.5147 9.45402 17.6553 9.59467L20 11.9393V3.5C20 2.67157 19.3284 2 18.5 2ZM20 14.0607L17.125 11.1857L10.6553 17.6553C10.5147 17.796 10.3239 17.875 10.125 17.875C9.92609 17.875 9.73532 17.796 9.59467 17.6553L6.625 14.6857L2.15198 19.1587C2.39589 19.6569 2.90788 20 3.5 20H18.5C19.3284 20 20 19.3284 20 18.5V14.0607Z" fill="currentColor"/>

	</symbol>
	<symbol id="play" viewBox="0 0 124.87 144.187">
		<path fill="currentColor" d="M0,144.187V0l124.87,72.093L0,144.187z M0.851,1.473v141.242l122.318-70.621L0.851,1.473z"/>

	</symbol>
	<symbol id="plus-circle" viewBox="0 0 19 19">
		<path d="M9.62207 13.9677C9.27689 13.9677 8.99707 13.6879 8.99707 13.3427V10.2526H5.8427C5.49752 10.2526 5.2177 9.97274 5.2177 9.62756C5.2177 9.28239 5.49752 9.00256 5.8427 9.00256H8.99707V5.8427C8.99707 5.49752 9.27689 5.2177 9.62207 5.2177C9.96725 5.2177 10.2471 5.49752 10.2471 5.8427V9.00256H13.3427C13.6879 9.00256 13.9677 9.28239 13.9677 9.62756C13.9677 9.97274 13.6879 10.2526 13.3427 10.2526H10.2471V13.3427C10.2471 13.6879 9.96725 13.9677 9.62207 13.9677Z" fill="currentColor"/>
		<path fill-rule="evenodd" clip-rule="evenodd" d="M19.0001 9.62512C19.0001 14.8028 14.8028 19.0001 9.62512 19.0001C4.44744 19.0001 0.250122 14.8028 0.250122 9.62512C0.250122 4.44744 4.44744 0.250122 9.62512 0.250122C14.8028 0.250122 19.0001 4.44744 19.0001 9.62512ZM17.7501 9.62512C17.7501 14.1124 14.1124 17.7501 9.62512 17.7501C5.1378 17.7501 1.50012 14.1124 1.50012 9.62512C1.50012 5.1378 5.1378 1.50012 9.62512 1.50012C14.1124 1.50012 17.7501 5.1378 17.7501 9.62512Z" fill="currentColor"/>

	</symbol>
	<symbol id="question-circle" viewBox="0 0 16 16">
		<path fill-rule="evenodd" clip-rule="evenodd" d="M8 15C11.866 15 15 11.866 15 8C15 4.134 11.866 1 8 1C4.134 1 1 4.134 1 8C1 11.866 4.134 15 8 15ZM8 16C12.4183 16 16 12.4183 16 8C16 3.58171 12.4183 0 8 0C3.58171 0 0 3.58171 0 8C0 12.4183 3.58171 16 8 16Z" fill="currentColor"/>
		<path d="M6.99363 10C6.99363 9.42463 7.06369 8.97143 7.20382 8.64039C7.34395 8.30542 7.57113 8.01576 7.88535 7.77143C8.19958 7.52709 8.43737 7.30443 8.59873 7.10345C8.76433 6.89852 8.84713 6.67389 8.84713 6.42956C8.84713 5.83448 8.55202 5.5 8 5.5C7.74522 5.5 7.41146 5.67253 7.20382 5.81366C6.99618 5.95479 6.76773 6.20493 6.75924 6.50049L5 6C5 5.5 5.27601 5.09951 5.80255 4.66207C6.32909 4.22069 7.06794 4 8.01911 4C8.96603 4 9.69851 4.20296 10.2166 4.60887C10.7389 5.01478 11 5.59212 11 6.34089C11 6.66798 10.9299 6.96552 10.7898 7.2335C10.6497 7.50148 10.4246 7.77537 10.1146 8.05517L9.38217 8.68769C9.1741 8.87291 9.02972 9.06404 8.94904 9.26108C8.86837 9.45419 8.82378 9.70049 8.81529 10H6.99363Z" fill="currentColor"/>
		<path fill-rule="evenodd" clip-rule="evenodd" d="M9 12C9 11.448 8.552 11 8 11C7.448 11 7 11.448 7 12C7 12.552 7.448 13 8 13C8.552 13 9 12.552 9 12Z" fill="currentColor"/>

	</symbol>
	<symbol id="search" viewBox="0 0 799.793 799.749">
		<path fill="currentColor" id="search" d="M336.5,611.249c-157.25,0-284.725-125.251-284.725-279.999
	c0-154.749,127.475-280.249,284.725-280.249c157.25,0,284.75,125.5,284.75,280.249C621.25,485.998,493.75,611.249,336.5,611.249
	L336.5,611.249z M792.199,756.25L585.725,553C639.775,494.25,673,416.751,673,331.25C673,148.251,522.351,0,336.5,0
	C150.65,0,0,148.251,0,331.25c0,182.752,150.65,331,336.5,331c80.3,0,153.95-27.75,211.8-73.999l207.3,203.997
	c10.125,10.001,26.5,10.001,36.6,0C802.324,782.501,802.324,766.251,792.199,756.25L792.199,756.25z"/>

	</symbol>
	<symbol id="settings" viewBox="0 0 24 24">
		<path fill="currentColor" d="M 9.6679688 2 L 9.1757812 4.5234375 C 8.3550224 4.8338012 7.5961042 5.2674041 6.9296875 5.8144531 L 4.5058594 4.9785156 L 2.1738281 9.0214844 L 4.1132812 10.707031 C 4.0445153 11.128986 4 11.558619 4 12 C 4 12.441381 4.0445153 12.871014 4.1132812 13.292969 L 2.1738281 14.978516 L 4.5058594 19.021484 L 6.9296875 18.185547 C 7.5961042 18.732596 8.3550224 19.166199 9.1757812 19.476562 L 9.6679688 22 L 14.332031 22 L 14.824219 19.476562 C 15.644978 19.166199 16.403896 18.732596 17.070312 18.185547 L 19.494141 19.021484 L 21.826172 14.978516 L 19.886719 13.292969 C 19.955485 12.871014 20 12.441381 20 12 C 20 11.558619 19.955485 11.128986 19.886719 10.707031 L 21.826172 9.0214844 L 19.494141 4.9785156 L 17.070312 5.8144531 C 16.403896 5.2674041 15.644978 4.8338012 14.824219 4.5234375 L 14.332031 2 L 9.6679688 2 z M 12 8 C 14.209 8 16 9.791 16 12 C 16 14.209 14.209 16 12 16 C 9.791 16 8 14.209 8 12 C 8 9.791 9.791 8 12 8 z"/>

	</symbol>
	<symbol id="smartphone" viewBox="0 0 12 16">
		<path d="M5 3.50781C5 3.23167 5.22386 3.00781 5.5 3.00781H6.5C6.77614 3.00781 7 3.23167 7 3.50781C7 3.78395 6.77614 4.00781 6.5 4.00781H5.5C5.22386 4.00781 5 3.78395 5 3.50781Z" fill="currentColor"/>
		<path d="M4.5 11.9922C4.22386 11.9922 4 12.216 4 12.4922C4 12.7683 4.22386 12.9922 4.5 12.9922H7.5C7.77614 12.9922 8 12.7683 8 12.4922C8 12.216 7.77614 11.9922 7.5 11.9922H4.5Z" fill="currentColor"/>
		<path fill-rule="evenodd" clip-rule="evenodd" d="M0.00146484 2.04041C0.00146484 0.891516 0.985826 0.00195312 2.13064 0.00195312H9.86922C11.014 0.00195312 11.9984 0.891516 11.9984 2.04041V13.9635C11.9984 15.1124 11.014 16.002 9.86922 16.002H2.13064C0.985825 16.002 0.00146484 15.1124 0.00146484 13.9635V2.04041ZM2.13064 1.00195C1.48336 1.00195 1.00146 1.49701 1.00146 2.04041V13.9635C1.00146 14.5069 1.48336 15.002 2.13064 15.002H9.86922C10.5165 15.002 10.9984 14.5069 10.9984 13.9635V2.04041C10.9984 1.49701 10.5165 1.00195 9.86922 1.00195H2.13064Z" fill="currentColor"/>

	</symbol>
	<symbol id="tel" viewBox="0.439 0.183 21.373 21.354">
		<path fill="currentColor" d="M14.959,21.536L14.959,21.536c-1.226,0-2.444-0.306-3.523-0.885l-1.519-0.81
		c-3.313-1.776-6.001-4.465-7.778-7.777l-0.811-1.522C-0.231,7.615,0.296,4.073,2.64,1.729l1-1c0.728-0.729,1.991-0.729,2.72,0
		l3.11,3.11c0.75,0.75,0.75,1.971,0,2.721l-1.85,1.85l5.91,5.95l1.89-1.851c0.729-0.729,1.992-0.729,2.721,0l3.11,3.11
		C22,16.368,22,17.589,21.252,18.34l-1.001,1.001C18.843,20.756,16.962,21.536,14.959,21.536z M5,1.665
		c-0.113,0-0.219,0.045-0.3,0.125l-1,1C1.827,4.664,1.405,7.496,2.652,9.837l0.81,1.52c1.635,3.049,4.112,5.526,7.162,7.161
		l1.518,0.81c0.864,0.464,1.837,0.708,2.816,0.708c1.602,0,3.104-0.623,4.23-1.755l1.001-1.001c0.167-0.168,0.168-0.432,0-0.6
		l-3.11-3.11c-0.162-0.162-0.438-0.162-0.6,0l-1.851,1.851c-0.572,0.572-1.584,0.572-2.158,0.002L6.56,9.51
		C6.273,9.224,6.115,8.84,6.115,8.43S6.273,7.636,6.56,7.35L8.41,5.5c0.081-0.081,0.125-0.188,0.125-0.3S8.491,4.981,8.41,4.9
		L5.3,1.79C5.219,1.709,5.113,1.665,5,1.665z"/>

	</symbol>
	<symbol id="trash-bin" viewBox="0 0 18 20.00256">
		<path d="M 8.306641,9.7288057e-4 C 7.477241,9.7288057e-4 6.9449,-0.02645522 6.34375,0.20995728 5.8763941,0.39375578 5.4627917,0.69189158 5.140625,1.0771448 4.7261751,1.572733 4.584543,2.0852547 4.3222656,2.8720666 L 4.2792969,3.0009729 H 3 1 a 1.000005,1.000005 0 0 0 -1,1 1.000005,1.000005 0 0 0 1,1 h 1 v 9.1992191 c 0,1.680198 -0.051648,2.660916 0.4355469,3.617187 0.3834436,0.752569 0.9955187,1.364644 1.7480468,1.748047 0.9562859,0.487285 1.9370292,0.435547 3.6171873,0.435547 h 2.398438 c 1.680198,0 2.660909,0.05168 3.617187,-0.435547 0.752558,-0.383411 1.364636,-0.995489 1.748047,-1.748047 C 16.051681,16.861101 16,15.88039 16,14.200192 V 5.0009729 h 1 a 1.000005,1.000005 0 0 0 1,-1 1.000005,1.000005 0 0 0 -1,-1 H 15 13.720703 L 13.677734,2.8720666 C 13.415423,2.0852113 13.273684,1.5726462 12.859375,1.0771448 12.537246,0.69195488 12.123646,0.39376568 11.65625,0.20995728 11.055101,-0.02644802 10.522759,9.7288057e-4 9.693359,9.7288057e-4 Z m 0,2.00000001943 h 1.386718 c 0.8294,0 1.125819,0.029158 1.230469,0.070312 0.155803,0.061271 0.294873,0.1605529 0.402344,0.2890625 0.04033,0.048238 0.166828,0.4182177 0.253906,0.6406255 H 6.4199219 C 6.5069805,2.778578 6.6335288,2.4085368 6.6738281,2.3603479 6.781241,2.2319016 6.9203484,2.1325666 7.076172,2.0712854 7.180801,2.0301381 7.477241,2.0009729 8.306641,2.0009729 Z m -4.306641,3 h 10 v 9.1992191 c 0,1.680198 -0.05198,2.381664 -0.21875,2.708984 -0.191788,0.376442 -0.496605,0.681259 -0.873047,0.873047 -0.32732,0.166771 -1.028786,0.21875 -2.708984,0.21875 H 7.800781 c -1.6801581,0 -2.3818112,-0.05204 -2.7089841,-0.21875 C 4.7153461,17.590426 4.4105458,17.285606 4.21875,16.909176 4.0519853,16.581849 4,15.88039 4,14.200192 Z m 3,2 a 1.000005,1.000005 0 0 0 -1,1 v 7.0000001 a 1.000005,1.000005 0 0 0 1,1 1.000005,1.000005 0 0 0 1,-1 V 8.0009729 a 1.000005,1.000005 0 0 0 -1,-1 z m 4,0 a 1.000005,1.000005 0 0 0 -1,1 v 7.0000001 a 1.000005,1.000005 0 0 0 1,1 1.000005,1.000005 0 0 0 1,-1 V 8.0009729 a 1.000005,1.000005 0 0 0 -1,-1 z" fill="currentColor"/>

	</symbol>
	<symbol id="upload" viewBox="0 0 19.5 18.500001">
		<path d="M 9.75,0 A 0.75,0.75 0 0 0 9,0.75 0.75,0.75 0 0 0 9.75,1.5 C 12.106063,1.5 14,3.3939173 14,5.75 v 1 a 0.750075,0.750075 0 0 0 0.75,0.75 c 1.803752,0 3.25,1.446248 3.25,3.25 0,1.208952 -0.663343,2.295288 -1.625,2.851562 A 0.75,0.75 0 0 0 16.101562,14.625 0.75,0.75 0 0 0 17.125,14.898437 C 18.55454,14.071514 19.5,12.502245 19.5,10.75 19.5,8.401148 17.746079,6.526793 15.5,6.1523438 V 5.75 C 15.5,2.5832482 12.916731,0 9.75,0 Z M 6.1992188,2.1503906 A 0.75,0.75 0 0 0 5.1503906,2.2988281 C 4.4289065,3.2593587 4,4.4591742 4,5.75 V 6.1523438 C 1.7539031,6.5267944 0,8.401156 0,10.75 c 0,1.752245 0.9454598,3.321514 2.375,4.148437 A 0.75,0.75 0 0 0 3.3984375,14.625 0.75,0.75 0 0 0 3.125,13.601562 C 2.1633426,13.045288 1.5,11.958952 1.5,10.75 1.5,8.946239 2.9462005,7.5 4.75,7.5 5.1033764,7.5 5.4410566,7.55508 5.7578125,7.658203 A 0.75,0.75 0 0 0 6.703125,7.177734 0.75,0.75 0 0 0 6.2226563,6.2324219 C 5.9949703,6.1582975 5.7411796,6.1583986 5.5,6.1191406 V 5.75 C 5.5,4.789608 5.8157148,3.9119597 6.3496094,3.2011719 A 0.75,0.75 0 0 0 6.1992188,2.1503906 Z M 9.75,8 A 0.75,0.75 0 0 0 9.21875,8.21875 l -3,3 a 0.75,0.75 0 0 0 0,1.0625 0.75,0.75 0 0 0 1.0625,0 L 9,10.5625 V 17.75 a 0.75,0.75 0 0 0 0.75,0.75 0.75,0.75 0 0 0 0.75,-0.75 v -7.1875 l 1.71875,1.71875 a 0.75,0.75 0 0 0 1.0625,0 0.75,0.75 0 0 0 0,-1.0625 l -3,-3 A 0.75,0.75 0 0 0 9.75,8 Z" fill="currentColor"/>

	</symbol>
	<symbol id="users-group" viewBox="0.25 0.25 21.5 18.5">
		<path d="M17.763,10.848C18.961,9.985,19.75,8.586,19.75,7c0-2.619-2.131-4.75-4.75-4.75c-0.414,0-0.75,0.336-0.75,0.75
	S14.586,3.75,15,3.75c1.792,0,3.25,1.458,3.25,3.25s-1.458,3.25-3.25,3.25c-0.414,0-0.75,0.336-0.75,0.75s0.336,0.75,0.75,0.75
	c2.895,0,5.25,2.355,5.25,5.25c0,0.414,0.336,0.75,0.75,0.75s0.75-0.336,0.75-0.75C21.75,14.263,20.109,11.906,17.763,10.848z"/>
		<path d="M11.039,10.872C12.664,9.855,13.75,8.054,13.75,6c0-3.17-2.58-5.75-5.75-5.75S2.25,2.83,2.25,6
	c0,2.054,1.086,3.855,2.711,4.872C2.194,12.057,0.25,14.805,0.25,18c0,0.414,0.336,0.75,0.75,0.75S1.75,18.414,1.75,18
	c0-3.446,2.804-6.25,6.25-6.25s6.25,2.804,6.25,6.25c0,0.414,0.336,0.75,0.75,0.75s0.75-0.336,0.75-0.75
	C15.75,14.805,13.806,12.057,11.039,10.872z M3.75,6c0-2.343,1.907-4.25,4.25-4.25S12.25,3.657,12.25,6S10.343,10.25,8,10.25
	S3.75,8.343,3.75,6z"/>

	</symbol>
</symbol></svg>