<svg width="115" height="110" viewBox="0 0 115 110" fill="none" xmlns="http://www.w3.org/2000/svg">
<path d="M10.1417 98.011L19.1181 109.557H12.7955L5.28934 99.4526V109.562H0V86.6788H5.28934V96.8522L12.8319 86.6788H19.1181L10.1417 98.011Z" fill="black"/>
<path d="M35.5051 103.047H23.884C23.9796 105.123 25.3497 106.241 27.5711 106.241C29.1051 106.241 30.0838 105.826 30.5071 104.831H35.4004C34.9088 107.938 31.7589 110 27.562 110C22.2044 110 18.9133 106.957 18.9133 101.706C18.9133 96.5374 22.2772 93.4124 27.4026 93.4124C32.3005 93.4124 35.6326 96.4553 35.6326 100.908C35.6371 101.629 35.5961 102.35 35.5097 103.066L35.5051 103.047ZM30.7073 99.9361C30.6709 97.865 29.4966 96.7427 27.3754 96.7427C25.2542 96.7427 23.9159 98.0201 23.884 99.9361H30.7073Z" fill="black"/>
<path d="M38.4956 93.7865H43.5027V96.0675C44.4131 94.302 46.2339 93.3303 48.5964 93.3303C52.4154 93.3303 54.3409 95.4882 54.3409 99.7765V109.53H49.3338V101.455C49.3338 98.8048 48.5827 97.5958 46.5617 97.5958C44.5406 97.5958 43.5255 98.9051 43.5255 101.328V109.576H38.5184L38.4956 93.7865Z" fill="black"/>
<path d="M68.015 105.566V109.557C66.9137 109.739 65.7991 109.827 64.683 109.822C62.3342 109.822 59.1023 109.297 59.1023 104.015V97.7418H56.6169V93.7865H59.1023V89.1058H64.1094V93.7865H67.6782V97.7418H64.1185V102.984C64.1185 105.306 65.0653 105.666 66.3035 105.666C66.8754 105.666 67.4469 105.633 68.015 105.566Z" fill="black"/>
<path d="M70.3 89.3659C70.2866 88.751 70.4596 88.1465 70.7962 87.6323C71.1272 87.1182 71.6023 86.7135 72.1618 86.469C72.7281 86.2307 73.3516 86.1641 73.9553 86.2774C74.5648 86.3946 75.1249 86.6935 75.5621 87.135C75.9992 87.5671 76.2973 88.1203 76.4182 88.7235C76.5391 89.3267 76.4771 89.9524 76.2403 90.5201C76.0017 91.0787 75.6044 91.5547 75.0978 91.8887C74.5062 92.2902 73.7942 92.4746 73.0825 92.4106C72.3709 92.3466 71.7031 92.0381 71.1923 91.5374C70.9087 91.2503 70.6831 90.9111 70.5276 90.5383C70.3743 90.1652 70.2984 89.7648 70.3046 89.3613L70.3 89.3659ZM70.8873 93.7865H75.8534V109.548H70.8873V93.7865Z" fill="black"/>
<path d="M78.7485 101.67C78.7485 96.6925 81.9804 93.3759 87.1696 93.3759C91.8718 93.3759 94.9398 95.8668 95.3312 99.7947H90.3241C89.9645 98.3212 89.0177 97.6323 87.1878 97.6323C85.0302 97.6323 83.7283 99.0694 83.7283 101.688C83.7283 104.307 85.0302 105.748 87.1878 105.748C89.0086 105.748 89.9645 105.091 90.3241 103.718H95.3312C94.9398 107.55 91.8718 110 87.1696 110C81.9895 109.982 78.7485 106.642 78.7485 101.67Z" fill="black"/>
<path d="M97.5251 101.67C97.5251 96.8613 100.857 93.3759 106.279 93.3759C111.7 93.3759 115 96.875 115 101.67C115 106.464 111.668 109.968 106.279 109.968C100.889 109.968 97.5251 106.483 97.5251 101.67ZM110.034 101.67C110.034 99.2838 108.632 97.5639 106.279 97.5639C103.925 97.5639 102.528 99.2655 102.528 101.67C102.528 104.074 103.893 105.776 106.279 105.776C108.664 105.776 110.034 104.06 110.034 101.67Z" fill="black"/>
<path d="M57.2542 68.4307C76.1089 68.4307 91.3937 53.1119 91.3937 34.2153C91.3937 15.3187 76.1089 0 57.2542 0C38.3995 0 23.1147 15.3187 23.1147 34.2153C23.1147 53.1119 38.3995 68.4307 57.2542 68.4307Z" fill="#F05A22"/>
<path d="M57.2541 29.6533C58.3124 29.653 59.3379 30.0205 60.1562 30.693C60.9745 31.3655 61.5349 32.3016 61.7418 33.3418C61.9487 34.3819 61.7894 35.4617 61.291 36.3974C60.7926 37.333 59.986 38.0665 59.0085 38.473C58.0311 38.8794 56.9433 38.9337 55.9304 38.6265C54.9175 38.3193 54.0422 37.6697 53.4536 36.7882C52.865 35.9068 52.5995 34.8481 52.7023 33.7926C52.8052 32.737 53.2701 31.7498 54.0177 30.9991C54.4417 30.5717 54.946 30.2326 55.5015 30.0016C56.057 29.7706 56.6527 29.6522 57.2541 29.6533Z" fill="white"/>
<path d="M69.0073 31.0675H78.8395C78.9261 31.0676 79.0099 31.0983 79.0762 31.1542C79.1442 31.2096 79.1909 31.287 79.2082 31.3732C79.4449 32.614 80.0776 37.3631 76.0947 37.3631H69.071C65.2019 37.3631 65.1154 31.0675 69.0255 31.0675" fill="white"/>
<path d="M45.5192 37.3631H35.6825C35.596 37.3622 35.5124 37.3316 35.4458 37.2764C35.3776 37.2219 35.3321 37.1438 35.3183 37.0575C35.077 35.8166 34.4444 31.0675 38.4318 31.0675H45.4737C49.3428 31.0675 49.4293 37.3631 45.5192 37.3631Z" fill="white"/>
<path d="M63.3401 23.6588L70.2955 16.6879C70.3596 16.6289 70.441 16.5921 70.5276 16.583C70.6145 16.5741 70.7018 16.5967 70.7734 16.6469C71.8249 17.3631 75.6122 20.26 72.7945 23.0885L67.8238 28.0748C65.0926 30.812 60.5862 26.4188 63.3492 23.6588" fill="white"/>
<path d="M51.1638 44.7719L44.2084 51.7381C44.1459 51.8003 44.0639 51.839 43.9763 51.8476C43.8893 51.8566 43.8021 51.8339 43.7304 51.7838C42.6789 51.063 38.8918 48.1661 41.714 45.3422L46.6892 40.3513C49.4295 37.6095 53.9268 42.0073 51.1638 44.7719Z" fill="white"/>
<path d="M54.1133 22.4361V12.5775C54.1122 12.4905 54.143 12.4061 54.1998 12.3403C54.2542 12.2719 54.3322 12.2264 54.4183 12.2126C55.6564 11.9753 60.395 11.3366 60.395 15.3376V22.354C60.395 26.2317 54.1133 26.3184 54.1133 22.3996" fill="white"/>
<path d="M60.395 45.9945V55.8531C60.3944 55.9406 60.362 56.0249 60.3039 56.0903C60.247 56.1557 60.1702 56.2005 60.0854 56.218C58.8473 56.4553 54.1133 57.0894 54.1133 53.0931V46.0356C54.1133 42.1624 60.395 42.0712 60.395 45.9945Z" fill="white"/>
<path d="M46.7209 28.1113L39.7656 21.1405C39.7053 21.0785 39.6669 20.9984 39.6563 20.9124C39.6519 20.8257 39.6741 20.7397 39.72 20.6661C40.4392 19.6077 43.3297 15.8166 46.1519 18.6405L51.1272 23.6314C53.8583 26.3686 49.4794 30.8851 46.7209 28.1113Z" fill="white"/>
<path d="M67.7827 40.3194L74.738 47.2856C74.7983 47.3495 74.8367 47.431 74.8473 47.5183C74.8539 47.6052 74.8315 47.6919 74.7835 47.7646C74.0643 48.823 71.1739 52.6141 68.3517 49.7902L63.3764 44.7993C60.6452 42.0621 65.0288 37.5457 67.7827 40.3194Z" fill="white"/>
</svg>
