<svg width="133" height="133" viewBox="0 0 133 133" fill="none" xmlns="http://www.w3.org/2000/svg">
<path d="M66.5 133C103.227 133 133 103.227 133 66.5C133 29.7731 103.227 0 66.5 0C29.7731 0 0 29.7731 0 66.5C0 103.227 29.7731 133 66.5 133Z" fill="#F05A22"/>
<path d="M66.5 57.616C68.5643 57.6182 70.5639 58.3362 72.1581 59.6477C73.7522 60.9592 74.8421 62.783 75.242 64.8081C75.6419 66.8333 75.3271 68.9345 74.3512 70.7536C73.3753 72.5726 71.7987 73.9968 69.8902 74.7835C67.9817 75.5702 65.8594 75.6706 63.8851 75.0677C61.9109 74.4647 60.2068 73.1957 59.0635 71.4769C57.9202 69.7582 57.4083 67.6961 57.6152 65.6422C57.8221 63.5884 58.735 61.6698 60.1982 60.2136C61.0264 59.3878 62.0092 58.7333 63.0905 58.2876C64.1718 57.8418 65.3304 57.6136 66.5 57.616Z" fill="white"/>
<path d="M89.3905 60.3851H108.546C108.715 60.3843 108.88 60.4411 109.013 60.5462C109.145 60.6536 109.233 60.8048 109.263 60.9722C109.73 63.388 110.961 72.6149 103.2 72.6149H89.5204C81.982 72.6149 81.8156 60.3851 89.4319 60.3851" fill="white"/>
<path d="M43.6095 72.6149H24.4492C24.2804 72.6152 24.1167 72.5564 23.9868 72.4487C23.8562 72.3426 23.7678 72.1933 23.7374 72.0278C23.2698 69.612 22.0386 60.3851 29.8004 60.3851H43.5212C51.0596 60.3851 51.2258 72.6149 43.6095 72.6149Z" fill="white"/>
<path d="M78.361 45.9837L91.9103 32.4344C92.0324 32.3189 92.1897 32.2475 92.3571 32.2317C92.526 32.2171 92.6948 32.2612 92.835 32.3564C94.8872 33.7488 102.265 39.3805 96.7679 44.8771L87.0735 54.5508C81.7431 59.8812 72.9786 51.3297 78.361 45.9629" fill="white"/>
<path d="M54.639 87.0163L41.0898 100.555C40.9698 100.676 40.8119 100.751 40.6429 100.768C40.4738 100.786 40.3041 100.741 40.165 100.644C38.1128 99.246 30.7355 93.6143 36.2321 88.1281L45.9265 78.4492C51.2569 73.098 60.0214 81.6391 54.639 87.0163Z" fill="white"/>
<path d="M60.3799 43.6043V24.4491C60.3806 24.2788 60.4407 24.1141 60.5497 23.9832C60.6588 23.8524 60.81 23.7636 60.9774 23.7322C63.388 23.275 72.6201 22.0333 72.6201 29.8055V43.4848C72.6201 51.0232 60.3799 51.1894 60.3799 43.5731" fill="white"/>
<path d="M72.6201 89.3957V108.551C72.6168 108.72 72.5563 108.883 72.4486 109.013C72.3397 109.143 72.1891 109.231 72.0225 109.263C69.6067 109.725 60.3799 110.956 60.3799 103.194V89.4788C60.3799 81.9456 72.6201 81.769 72.6201 89.3957Z" fill="white"/>
<path d="M45.9889 54.6339L32.4395 41.0845C32.3207 40.9661 32.2472 40.8099 32.2317 40.6429C32.2128 40.476 32.2552 40.308 32.3512 40.1701C33.7539 38.092 39.3856 30.7407 44.877 36.2269L54.5508 45.9266C59.8863 51.2569 51.3348 60.0214 45.9681 54.6339" fill="white"/>
<path d="M87.0111 78.3661L100.561 91.9051C100.679 92.0258 100.752 92.1835 100.769 92.3518C100.785 92.5202 100.742 92.6889 100.649 92.8298C99.2461 94.908 93.6144 102.259 88.123 96.7731L78.4493 87.0734C73.1137 81.7482 81.6652 72.9786 87.0319 78.3661" fill="white"/>
</svg>
