<svg width="78" height="78" viewBox="0 0 78 78" fill="none" xmlns="http://www.w3.org/2000/svg">
<path d="M78 39C78 60.5391 60.5391 78 39 78C17.4609 78 0 60.5391 0 39C0 17.4609 17.4609 0 39 0C60.5391 0 78 17.4609 78 39ZM5.86469 39C5.86469 57.3001 20.6999 72.1353 39 72.1353C57.3001 72.1353 72.1353 57.3001 72.1353 39C72.1353 20.6999 57.3001 5.86469 39 5.86469C20.6999 5.86469 5.86469 20.6999 5.86469 39Z" fill="#E5DEDC"/>
<path d="M78 39C78 33.8784 76.9912 28.807 75.0313 24.0753C73.0714 19.3436 70.1986 15.0443 66.5772 11.4228C62.9557 7.80135 58.6563 4.92863 53.9247 2.9687C49.193 1.00876 44.1216 -2.2387e-07 39 0V5.86469C43.3514 5.86469 47.6602 6.72176 51.6803 8.38697C55.7005 10.0522 59.3533 12.4929 62.4302 15.5698C65.5071 18.6467 67.9478 22.2995 69.613 26.3197C71.2782 30.3398 72.1353 34.6486 72.1353 39H78Z" fill="#F05A22"/>
<circle cx="38.95" cy="2.95" r="2.95" fill="#F05A22"/>
<circle cx="75" cy="39" r="3" fill="#F05A22"/>
</svg>
