<svg width="253" height="217" viewBox="0 0 253 217" fill="none" xmlns="http://www.w3.org/2000/svg">
<g clip-path="url(#clip0_225_471)">
<path d="M33.6206 77.8123L86.4709 24.5733C118.153 -7.3418 169.736 -7.55765 201.685 24.0913C233.633 55.7401 233.849 107.269 202.167 139.184L149.317 192.423C117.635 224.338 66.0519 224.554 34.1033 192.905C2.15459 161.256 1.93852 109.727 33.6206 77.8123Z" stroke="black"/>
<path d="M183.827 46.3276H51.9469C42.4084 46.3276 34.676 54.0519 34.676 63.5804V155.476C34.676 165.004 42.4084 172.728 51.9469 172.728H183.827C193.366 172.728 201.098 165.004 201.098 155.476V63.5804C201.098 54.0519 193.366 46.3276 183.827 46.3276Z" fill="white" stroke="#231F20" stroke-width="0.5" stroke-linecap="round" stroke-linejoin="round"/>
<path d="M191.814 156.526V62.5301C191.814 58.6916 188.699 55.5798 184.856 55.5798L50.8955 55.5798C47.0529 55.5798 43.9379 58.6916 43.9379 62.5301V156.526C43.9379 160.365 47.0529 163.476 50.8955 163.476H184.856C188.699 163.476 191.814 160.365 191.814 156.526Z" stroke="#EBD8FF" stroke-width="0.5" stroke-linecap="round" stroke-linejoin="round"/>
<path fill-rule="evenodd" clip-rule="evenodd" d="M73.8711 147.81H165.237L135.661 98.0857L113.424 130.781L99.934 108.813L73.8711 147.81Z" fill="#00B3FC"/>
<path d="M99.934 92.0294C105.753 92.0294 110.471 87.3168 110.471 81.5035C110.471 75.6902 105.753 70.9775 99.934 70.9775C94.1145 70.9775 89.397 75.6902 89.397 81.5035C89.397 87.3168 94.1145 92.0294 99.934 92.0294Z" fill="#F05A22"/>
<path d="M221 71C232.046 71 241 62.0457 241 51C241 39.9543 232.046 31 221 31C209.955 31 201 39.9543 201 51C201 62.0457 209.955 71 221 71Z" stroke="#00B3FC" stroke-width="0.5" stroke-miterlimit="10"/>
<path d="M43.9173 212.812C49.9468 212.812 54.8346 207.929 54.8346 201.906C54.8346 195.883 49.9468 191 43.9173 191C37.8879 191 33 195.883 33 201.906C33 207.929 37.8879 212.812 43.9173 212.812Z" fill="#F05A22"/>
</g>
<defs>
<clipPath id="clip0_225_471">
<rect width="253" height="217" fill="white"/>
</clipPath>
</defs>
</svg>
